<?xml version="1.0" encoding="utf-8"?>
<!-- Generator: Adobe Illustrator 24.0.0, SVG Export Plug-In . SVG Version: 6.00 Build 0)  -->
<svg version="1.1" id="Layer_1" xmlns="http://www.w3.org/2000/svg" xmlns:xlink="http://www.w3.org/1999/xlink" x="0px" y="0px"
	 viewBox="0 0 26 26" style="enable-background:new 0 0 26 26;" xml:space="preserve">
<g>
	<path d="M22.7,9h-4.3V3.3C18.3,3.1,18.2,3,18,3H8C7.8,3,7.7,3.1,7.7,3.3V9H3.3C3.1,9,3,9.1,3,9.3v13.3C3,22.9,3.1,23,3.3,23h19.3
		c0.2,0,0.3-0.1,0.3-0.3V9.3C23,9.1,22.9,9,22.7,9z M3.7,9.7h4v12.7h-4V9.7z M14,19v3.3h-2V19H14z M17.7,22.3h-3V19h0.7v-0.7h-4.7
		V19h0.7v3.3h-3V3.7h9.3V22.3z M22.3,22.3h-4V9.7h4V22.3z"/>
	<path d="M19.3,13h2c0.2,0,0.3-0.1,0.3-0.3v-2c0-0.2-0.1-0.3-0.3-0.3h-2c-0.2,0-0.3,0.1-0.3,0.3v2C19,12.9,19.1,13,19.3,13z
		 M19.7,11H21v1.3h-1.3V11z"/>
	<path d="M19.3,16.3h2c0.2,0,0.3-0.1,0.3-0.3v-2c0-0.2-0.1-0.3-0.3-0.3h-2c-0.2,0-0.3,0.1-0.3,0.3v2C19,16.2,19.1,16.3,19.3,16.3z
		 M19.7,14.3H21v1.3h-1.3V14.3z"/>
	<path d="M19.3,19.7h2c0.2,0,0.3-0.1,0.3-0.3v-2c0-0.2-0.1-0.3-0.3-0.3h-2c-0.2,0-0.3,0.1-0.3,0.3v2C19,19.5,19.1,19.7,19.3,19.7z
		 M19.7,17.7H21V19h-1.3V17.7z"/>
	<path d="M6.7,10.3h-2c-0.2,0-0.3,0.1-0.3,0.3v2c0,0.2,0.1,0.3,0.3,0.3h2C6.9,13,7,12.9,7,12.7v-2C7,10.5,6.9,10.3,6.7,10.3z
		 M6.3,12.3H5V11h1.3V12.3z"/>
	<path d="M9.3,11.7h1.3c0.2,0,0.3-0.1,0.3-0.3V10c0-0.2-0.1-0.3-0.3-0.3H9.3C9.1,9.7,9,9.8,9,10v1.3C9,11.5,9.1,11.7,9.3,11.7z
		 M9.7,10.3h0.7V11H9.7V10.3z"/>
	<path d="M13.7,9.7h-1.3C12.1,9.7,12,9.8,12,10v1.3c0,0.2,0.1,0.3,0.3,0.3h1.3c0.2,0,0.3-0.1,0.3-0.3V10C14,9.8,13.9,9.7,13.7,9.7z
		 M13.3,11h-0.7v-0.7h0.7V11z"/>
	<path d="M15,10v1.3c0,0.2,0.1,0.3,0.3,0.3h1.3c0.2,0,0.3-0.1,0.3-0.3V10c0-0.2-0.1-0.3-0.3-0.3h-1.3C15.1,9.7,15,9.8,15,10z
		 M15.7,10.3h0.7V11h-0.7V10.3z"/>
	<path d="M9.3,14.3h1.3c0.2,0,0.3-0.1,0.3-0.3v-1.3c0-0.2-0.1-0.3-0.3-0.3H9.3c-0.2,0-0.3,0.1-0.3,0.3V14C9,14.2,9.1,14.3,9.3,14.3z
		 M9.7,13h0.7v0.7H9.7V13z"/>
	<path d="M13.7,12.3h-1.3c-0.2,0-0.3,0.1-0.3,0.3V14c0,0.2,0.1,0.3,0.3,0.3h1.3c0.2,0,0.3-0.1,0.3-0.3v-1.3
		C14,12.5,13.9,12.3,13.7,12.3z M13.3,13.7h-0.7V13h0.7V13.7z"/>
	<path d="M16.7,12.3h-1.3c-0.2,0-0.3,0.1-0.3,0.3V14c0,0.2,0.1,0.3,0.3,0.3h1.3c0.2,0,0.3-0.1,0.3-0.3v-1.3
		C17,12.5,16.9,12.3,16.7,12.3z M16.3,13.7h-0.7V13h0.7V13.7z"/>
	<path d="M9.3,17h1.3c0.2,0,0.3-0.1,0.3-0.3v-1.3c0-0.2-0.1-0.3-0.3-0.3H9.3C9.1,15,9,15.1,9,15.3v1.3C9,16.9,9.1,17,9.3,17z
		 M9.7,15.7h0.7v0.7H9.7V15.7z"/>
	<path d="M13.7,15h-1.3c-0.2,0-0.3,0.1-0.3,0.3v1.3c0,0.2,0.1,0.3,0.3,0.3h1.3c0.2,0,0.3-0.1,0.3-0.3v-1.3C14,15.1,13.9,15,13.7,15z
		 M13.3,16.3h-0.7v-0.7h0.7V16.3z"/>
	<path d="M16.7,15h-1.3c-0.2,0-0.3,0.1-0.3,0.3v1.3c0,0.2,0.1,0.3,0.3,0.3h1.3c0.2,0,0.3-0.1,0.3-0.3v-1.3C17,15.1,16.9,15,16.7,15z
		 M16.3,16.3h-0.7v-0.7h0.7V16.3z"/>
	<path d="M6.7,13.7h-2c-0.2,0-0.3,0.1-0.3,0.3v2c0,0.2,0.1,0.3,0.3,0.3h2C6.9,16.3,7,16.2,7,16v-2C7,13.8,6.9,13.7,6.7,13.7z
		 M6.3,15.7H5v-1.3h1.3V15.7z"/>
	<path d="M6.7,17h-2c-0.2,0-0.3,0.1-0.3,0.3v2c0,0.2,0.1,0.3,0.3,0.3h2c0.2,0,0.3-0.1,0.3-0.3v-2C7,17.1,6.9,17,6.7,17z M6.3,19H5
		v-1.3h1.3V19z"/>
	<path d="M16.3,21H17v0.7h-0.7V21z"/>
	<path d="M16.3,19.7H17v0.7h-0.7V19.7z"/>
	<path d="M16.3,18.3H17V19h-0.7V18.3z"/>
	<g>
		<g>
			<g>
				<path d="M15.2,8.2c0,0-0.1,0-0.1,0l0,0c-0.1,0-0.9-0.4-2-0.2l0,0c0,0,0,0,0,0h0l0,0c-1.1-0.3-2,0.1-2,0.2c0,0-0.1,0-0.1,0
					c-0.1,0-0.2-0.1-0.2-0.2V5.2c0-0.1,0.1-0.2,0.2-0.2H11c0-0.1,0.1-0.2,0.2-0.2c0.2-0.1,0.4-0.1,0.7-0.1c0,0,0,0,0,0
					c0.5,0,0.9,0.1,1.2,0.4c0.4-0.3,0.8-0.4,1.2-0.4c0.2,0,0.4,0,0.7,0.1C14.9,4.8,15,4.9,15,5h0.2c0.1,0,0.2,0.1,0.2,0.2V8
					c0,0.1,0,0.2-0.1,0.2C15.3,8.2,15.2,8.2,15.2,8.2z M12.5,7.7c0.1,0,0.1,0,0.2,0C12.7,7.7,12.6,7.6,12.5,7.7L12.5,7.7z M13.5,7.6
					c-0.1,0-0.1,0.1-0.2,0.1C13.3,7.7,13.4,7.7,13.5,7.6L13.5,7.6z M13.2,5.5v1.9c0.2-0.1,0.6-0.2,1-0.2c0.1,0,0.2,0,0.3,0v-2
					c-0.1,0-0.3,0-0.4,0C13.9,5.2,13.5,5.2,13.2,5.5z M11.8,7.2L11.8,7.2c0.4,0,0.8,0.1,1,0.2l0-1.9c-0.3-0.3-0.7-0.3-1-0.3
					c-0.1,0-0.3,0-0.4,0v2C11.5,7.2,11.7,7.2,11.8,7.2L11.8,7.2z"/>
			</g>
		</g>
	</g>
</g>
</svg>
