<?xml version="1.0" encoding="utf-8"?>
<!-- Generator: Adobe Illustrator 24.0.0, SVG Export Plug-In . SVG Version: 6.00 Build 0)  -->
<svg version="1.1" id="Layer_1" xmlns="http://www.w3.org/2000/svg" xmlns:xlink="http://www.w3.org/1999/xlink" x="0px" y="0px"
	 viewBox="0 0 26 26" style="enable-background:new 0 0 26 26;" xml:space="preserve">
<g>
	<g>
		<g>
			<g>
				<path d="M22.7,3L22.7,3H3.3C3.1,3,3,3.1,3,3.3c0,0,0,0,0,0V10h0.7V3.7h18.7V11H10.7v0.7h12c0.2,0,0.3-0.1,0.3-0.3c0,0,0,0,0,0
					v-8C23,3.1,22.9,3,22.7,3z"/>
			</g>
		</g>
	</g>
	<g>
		<g>
			<g>
				<rect x="14" y="4.7" width="6.7" height="0.7"/>
			</g>
		</g>
	</g>
	<g>
		<g>
			<g>
				<rect x="15" y="6.7" width="6.7" height="0.7"/>
			</g>
		</g>
	</g>
	<g>
		<g>
			<g>
				<rect x="13.7" y="8.7" width="6.7" height="0.7"/>
			</g>
		</g>
	</g>
	<g>
		<g>
			<g>
				<path d="M13.6,5.9c-0.2-0.5-0.9-0.8-1.4-0.6c0,0,0,0,0,0L9.5,6.7C9.6,6.5,9.7,6.2,9.7,6c0-0.9-0.7-1.7-1.7-1.7S6.3,5.1,6.3,6
					c0,0.4,0.1,0.7,0.3,1h0C5.7,7,4.9,7.6,4.5,8.5l-0.9,3.1c-0.2,0.6,0.1,1.2,0.6,1.4C4.5,13,4.8,13,5,12.9c0.3-0.1,0.5-0.3,0.6-0.6
					L6,11.2V16c-0.3-0.2-0.6-0.3-1-0.3c-0.9,0-1.7,0.7-1.7,1.7c0,0.5,0.2,0.9,0.5,1.2C3.3,18.8,3,19.3,3,19.9v2.8
					C3,22.9,3.1,23,3.3,23h0h3.3C6.9,23,7,22.9,7,22.7c0,0,0,0,0,0v-2.8c0-0.5-0.2-0.9-0.6-1.2h2.5c-0.4,0.3-0.6,0.7-0.6,1.2v2.8
					c0,0.2,0.1,0.3,0.3,0.3c0,0,0,0,0,0H12c0.2,0,0.3-0.1,0.3-0.3c0,0,0,0,0,0v-2.8c0-0.6-0.3-1.1-0.8-1.4c0.7-0.6,0.7-1.7,0-2.4
					c-0.4-0.4-1-0.6-1.5-0.5V8.9l3.1-1.6C13.6,7.1,13.9,6.4,13.6,5.9z M8,5c0.6,0,1,0.4,1,1S8.6,7,8,7C7.4,7,7,6.6,7,6
					C7,5.4,7.4,5,8,5z M5,16.3c0.6,0,1,0.4,1,1s-0.4,1-1,1s-1-0.4-1-1C4,16.8,4.4,16.3,5,16.3z M6.3,22.3H3.7v-2.5
					c0-0.5,0.4-0.9,0.9-0.9h0.9c0.5,0,0.9,0.4,0.9,0.9V22.3z M11.7,19.9v2.5H9v-2.5C9,19.4,9.4,19,9.9,19h0.9
					C11.3,19,11.7,19.4,11.7,19.9z M10.3,16.3c0.6,0,1,0.4,1,1c0,0.6-0.4,1-1,1s-1-0.4-1-1S9.8,16.3,10.3,16.3z M13,6.4
					c0,0.1-0.1,0.2-0.3,0.2L9.5,8.4C9.4,8.4,9.3,8.5,9.3,8.7V16c-0.6,0.5-0.8,1.3-0.5,2H8.3v-5.7H7.7V18H6.5
					c0.1-0.2,0.1-0.4,0.1-0.7h0V9c0-0.2-0.1-0.3-0.3-0.3C6.2,8.7,6.1,8.8,6,8.9l-1,3.2c-0.1,0.2-0.3,0.3-0.5,0.2c0,0,0,0,0,0
					c-0.2-0.1-0.3-0.3-0.2-0.5l0.9-3.1c0.2-0.6,0.8-1,1.5-1H9c0.1,0,0.1,0,0.2,0l3.3-1.7c0.2-0.1,0.4,0,0.5,0.2
					C13.1,6.2,13.1,6.3,13,6.4z"/>
			</g>
		</g>
	</g>
	<g>
		<g>
			<g>
				<path d="M16.8,18.5c0.7-0.6,0.7-1.7,0-2.4c-0.6-0.7-1.7-0.7-2.4,0c-0.7,0.6-0.7,1.7,0,2.4c0,0,0,0,0,0c-0.5,0.3-0.8,0.8-0.8,1.4
					v2.8c0,0.2,0.1,0.3,0.3,0.3c0,0,0,0,0,0h3.3c0.2,0,0.3-0.1,0.3-0.3c0,0,0,0,0,0v-2.8C17.7,19.3,17.3,18.8,16.8,18.5z M15.7,16.3
					c0.6,0,1,0.4,1,1s-0.4,1-1,1c-0.6,0-1-0.4-1-1C14.7,16.8,15.1,16.3,15.7,16.3z M17,22.3h-2.7v-2.5c0-0.5,0.4-0.9,0.9-0.9h0.9
					c0.5,0,0.9,0.4,0.9,0.9V22.3z"/>
			</g>
		</g>
	</g>
	<g>
		<g>
			<g>
				<path d="M22.2,18.5c0.7-0.6,0.7-1.7,0-2.4c-0.6-0.7-1.7-0.7-2.4,0c-0.7,0.6-0.7,1.7,0,2.4c0,0,0,0,0,0c-0.5,0.3-0.8,0.8-0.8,1.4
					v2.8c0,0.2,0.1,0.3,0.3,0.3h0h3.3c0.2,0,0.3-0.1,0.3-0.3c0,0,0,0,0,0v-2.8C23,19.3,22.7,18.8,22.2,18.5z M21,16.3
					c0.6,0,1,0.4,1,1s-0.4,1-1,1s-1-0.4-1-1C20,16.8,20.4,16.3,21,16.3z M22.3,22.3h-2.7v-2.5c0-0.5,0.4-0.9,0.9-0.9h0.9
					c0.5,0,0.9,0.4,0.9,0.9V22.3z"/>
			</g>
		</g>
	</g>
</g>
</svg>
