<?xml version="1.0" encoding="utf-8"?>
<!-- Generator: Adobe Illustrator 24.0.0, SVG Export Plug-In . SVG Version: 6.00 Build 0)  -->
<svg version="1.1" id="Layer_1" xmlns="http://www.w3.org/2000/svg" xmlns:xlink="http://www.w3.org/1999/xlink" x="0px" y="0px"
	 viewBox="0 0 26 26" style="enable-background:new 0 0 26 26;" xml:space="preserve">
<g>
	<g>
		<g>
			<path d="M20.7,4.6h-0.9V3h-1.6v1.6H7.8V3H6.3v1.6H5.3C4.1,4.6,3,5.6,3,6.9v13.8C3,21.9,4.1,23,5.3,23h15.3c1.3,0,2.3-1.1,2.3-2.3
				V6.9C23,5.6,21.9,4.6,20.7,4.6z M21.4,20.7c0,0.4-0.4,0.8-0.8,0.8H5.3c-0.4,0-0.8-0.4-0.8-0.8V10.3h16.9V20.7z M21.4,8.8H4.6V6.9
				c0-0.4,0.4-0.8,0.8-0.8h0.9v1.6h1.6V6.1h10.3v1.6h1.6V6.1h0.9c0.4,0,0.8,0.4,0.8,0.8V8.8z"/>
		</g>
	</g>
	<g>
		<g>
			<rect x="6" y="12" width="1.6" height="1.6"/>
		</g>
	</g>
	<g>
		<g>
			<rect x="9.1" y="12" width="1.6" height="1.6"/>
		</g>
	</g>
	<g>
		<g>
			<rect x="12.2" y="12" width="1.6" height="1.6"/>
		</g>
	</g>
	<g>
		<g>
			<rect x="15.3" y="12" width="1.6" height="1.6"/>
		</g>
	</g>
	<g>
		<g>
			<rect x="18.5" y="12" width="1.6" height="1.6"/>
		</g>
	</g>
	<g>
		<g>
			<rect x="6" y="15.1" width="1.6" height="1.6"/>
		</g>
	</g>
	<g>
		<g>
			<rect x="9.1" y="15.1" width="1.6" height="1.6"/>
		</g>
	</g>
	<g>
		<g>
			<rect x="12.2" y="15.1" width="1.6" height="1.6"/>
		</g>
	</g>
	<g>
		<g>
			<rect x="15.3" y="15.1" width="1.6" height="1.6"/>
		</g>
	</g>
	<g>
		<g>
			<rect x="6" y="18.2" width="1.6" height="1.6"/>
		</g>
	</g>
	<g>
		<g>
			<rect x="9.1" y="18.2" width="1.6" height="1.6"/>
		</g>
	</g>
	<g>
		<g>
			<rect x="12.2" y="18.2" width="1.6" height="1.6"/>
		</g>
	</g>
	<g>
		<g>
			<rect x="15.3" y="18.2" width="1.6" height="1.6"/>
		</g>
	</g>
	<g>
		<g>
			<rect x="18.5" y="15.1" width="1.6" height="1.6"/>
		</g>
	</g>
</g>
</svg>
