<?xml version="1.0" encoding="utf-8"?>
<!-- Generator: Adobe Illustrator 24.0.0, SVG Export Plug-In . SVG Version: 6.00 Build 0)  -->
<svg version="1.1" id="Layer_1" xmlns="http://www.w3.org/2000/svg" xmlns:xlink="http://www.w3.org/1999/xlink" x="0px" y="0px"
	 viewBox="0 0 58 58" style="enable-background:new 0 0 58 58;" xml:space="preserve">
<style type="text/css">
	.st0{fill:#89A130;}
	.st1{fill:#FFFFFF;}
</style>
<circle class="st0" cx="29" cy="29" r="29"/>
<g>
	<path class="st1" d="M18.8,44c2.7,0,4.8-2.2,4.8-4.8s-2.2-4.8-4.8-4.8S14,36.5,14,39.2S16.2,44,18.8,44z M16.9,42.5v-0.4
		c0-0.8,0.7-1.5,1.5-1.5h1c0.8,0,1.5,0.7,1.5,1.5v0.4c-0.6,0.3-1.2,0.5-1.9,0.5C18.1,43,17.5,42.8,16.9,42.5z M18.8,39.6
		c-0.5,0-1-0.4-1-1c0-0.5,0.4-1,1-1c0.5,0,1,0.4,1,1C19.8,39.2,19.4,39.6,18.8,39.6z M18.8,35.3c2.1,0,3.9,1.7,3.9,3.9
		c0,1-0.4,1.9-1,2.6c-0.1-0.8-0.6-1.5-1.4-1.9c0.3-0.3,0.4-0.7,0.4-1.2c0-1.1-0.9-1.9-1.9-1.9c-1.1,0-1.9,0.9-1.9,1.9
		c0,0.5,0.2,0.9,0.4,1.2c-0.7,0.3-1.3,1-1.4,1.9c-0.6-0.7-1-1.6-1-2.6C15,37,16.7,35.3,18.8,35.3z"/>
	<path class="st1" d="M39.2,34.3c-2.7,0-4.8,2.2-4.8,4.8s2.2,4.8,4.8,4.8s4.8-2.2,4.8-4.8S41.8,34.3,39.2,34.3z M37.2,42.5v-0.4
		c0-0.8,0.7-1.5,1.5-1.5h1c0.8,0,1.5,0.7,1.5,1.5v0.4c-0.6,0.3-1.2,0.5-1.9,0.5C38.5,43,37.8,42.8,37.2,42.5z M39.2,39.6
		c-0.5,0-1-0.4-1-1c0-0.5,0.4-1,1-1s1,0.4,1,1C40.1,39.2,39.7,39.6,39.2,39.6z M42,41.7c-0.1-0.8-0.6-1.5-1.4-1.9
		c0.3-0.3,0.4-0.7,0.4-1.2c0-1.1-0.9-1.9-1.9-1.9c-1.1,0-1.9,0.9-1.9,1.9c0,0.5,0.2,0.9,0.4,1.2c-0.7,0.3-1.3,1-1.4,1.9
		c-0.6-0.7-1-1.6-1-2.6c0-2.1,1.7-3.9,3.9-3.9c2.1,0,3.9,1.7,3.9,3.9C43,40.2,42.7,41.1,42,41.7z"/>
	<path class="st1" d="M33.8,39.2c0-2.7-2.2-4.8-4.8-4.8s-4.8,2.2-4.8,4.8S26.3,44,29,44S33.8,41.8,33.8,39.2z M27.1,42.5v-0.4
		c0-0.8,0.7-1.5,1.5-1.5h1c0.8,0,1.5,0.7,1.5,1.5v0.4C30.4,42.8,29.7,43,29,43S27.6,42.8,27.1,42.5z M29,39.6c-0.5,0-1-0.4-1-1
		c0-0.5,0.4-1,1-1s1,0.4,1,1C30,39.2,29.5,39.6,29,39.6z M25.1,39.2c0-2.1,1.7-3.9,3.9-3.9s3.9,1.7,3.9,3.9c0,1-0.4,1.9-1,2.6
		c-0.1-0.8-0.6-1.5-1.4-1.9c0.3-0.3,0.4-0.7,0.4-1.2c0-1.1-0.9-1.9-1.9-1.9s-1.9,0.9-1.9,1.9c0,0.5,0.2,0.9,0.4,1.2
		c-0.7,0.3-1.3,1-1.4,1.9C25.5,41.1,25.1,40.2,25.1,39.2z"/>
	<path class="st1" d="M38,31.5l-0.5,0.8l1.5,1c0.1,0.1,0.2,0.1,0.3,0.1s0.2,0,0.3-0.1l1.5-1l-0.5-0.8L39.6,32v-2.5
		c0-0.3-0.2-0.5-0.5-0.5h-9.7v-2.4h-1V29h-9.7c-0.3,0-0.5,0.2-0.5,0.5V32l-0.7-0.5l-0.5,0.8l1.5,1c0.1,0.1,0.2,0.1,0.3,0.1
		c0.1,0,0.2,0,0.3-0.1l1.5-1L20,31.5L19.3,32v-2h9.2v2l-0.7-0.5l-0.5,0.8l1.5,1c0.1,0.1,0.2,0.1,0.3,0.1s0.2,0,0.3-0.1l1.5-1
		l-0.5-0.8L29.5,32v-2h9.2v2L38,31.5z"/>
	<path class="st1" d="M37.2,17.9c-0.9,0-1.8,0.3-2.5,0.8C34.2,16,31.8,14,29,14c-3.2,0-5.8,2.6-5.8,5.8s2.6,5.8,5.8,5.8
		c1.6,0,3.1-0.7,4.2-1.8c0.6,1.6,2.2,2.8,4,2.8c2.4,0,4.4-2,4.4-4.4S39.6,17.9,37.2,17.9z M26.6,24v-1.2c0-0.8,0.7-1.5,1.5-1.5h1.8
		c0.4,0,0.8,0.2,1.1,0.4c0.3,0.3,0.4,0.7,0.4,1.1V24c-0.7,0.4-1.6,0.7-2.4,0.7C28.1,24.6,27.3,24.4,26.6,24z M29,20.3
		c-0.8,0-1.5-0.7-1.5-1.5c0-0.8,0.7-1.5,1.5-1.5s1.5,0.7,1.5,1.5C30.5,19.6,29.8,20.3,29,20.3z M32.4,23.3v-0.5
		c0-0.7-0.3-1.3-0.7-1.8c-0.3-0.3-0.6-0.4-0.9-0.6c0.4-0.4,0.6-1,0.6-1.6c0-1.3-1.1-2.4-2.4-2.4s-2.4,1.1-2.4,2.4
		c0,0.6,0.3,1.2,0.7,1.6c-0.9,0.4-1.6,1.3-1.6,2.3v0.5c-0.9-0.9-1.5-2.1-1.5-3.4c0-2.7,2.2-4.8,4.8-4.8c2.6,0,4.7,2,4.8,4.5
		c-0.6,0.7-1,1.7-1,2.7c0,0.1,0,0.3,0,0.4C32.7,22.9,32.6,23.1,32.4,23.3z M37.2,25.6c-1.9,0-3.4-1.5-3.4-3.4c0-1.9,1.5-3.4,3.4-3.4
		c1.9,0,3.4,1.5,3.4,3.4C40.6,24.1,39.1,25.6,37.2,25.6z"/>
	<path class="st1" d="M37.2,20.8c0.3,0,0.5,0.2,0.5,0.5h1c0-0.6-0.4-1.2-1-1.4v-0.6h-1v0.6c-0.6,0.2-1,0.7-1,1.4
		c0,0.8,0.7,1.5,1.5,1.5c0.3,0,0.5,0.2,0.5,0.5s-0.2,0.5-0.5,0.5c-0.3,0-0.5-0.2-0.5-0.5h-1c0,0.6,0.4,1.2,1,1.4v0.6h1v-0.6
		c0.6-0.2,1-0.7,1-1.4c0-0.8-0.7-1.5-1.5-1.5c-0.3,0-0.5-0.2-0.5-0.5S37,20.8,37.2,20.8z"/>
</g>
</svg>
