<?xml version="1.0" encoding="utf-8"?>
<!-- Generator: Adobe Illustrator 24.0.0, SVG Export Plug-In . SVG Version: 6.00 Build 0)  -->
<svg version="1.1" id="Layer_1" xmlns="http://www.w3.org/2000/svg" xmlns:xlink="http://www.w3.org/1999/xlink" x="0px" y="0px"
	 viewBox="0 0 58 58" style="enable-background:new 0 0 58 58;" xml:space="preserve">
<style type="text/css">
	.st0{fill:#116893;}
	.st1{fill:#FFFFFF;}
</style>
<circle class="st0" cx="29" cy="29" r="29"/>
<g>
	<g>
		<path class="st1" d="M43.5,23H37v-8.5c0-0.3-0.2-0.5-0.5-0.5h-15c-0.3,0-0.5,0.2-0.5,0.5V23h-6.5c-0.3,0-0.5,0.2-0.5,0.5v20
			c0,0.3,0.2,0.5,0.5,0.5h29c0.3,0,0.5-0.2,0.5-0.5v-20C44,23.2,43.8,23,43.5,23z M15,24h6v19h-6V24z M30.5,38v5h-3v-5H30.5z M36,43
			h-4.5v-5h1v-1h-7v1h1v5H22V15h14V43z M43,43h-6V24h6V43z"/>
		<path class="st1" d="M38.5,29h3c0.3,0,0.5-0.2,0.5-0.5v-3c0-0.3-0.2-0.5-0.5-0.5h-3c-0.3,0-0.5,0.2-0.5,0.5v3
			C38,28.8,38.2,29,38.5,29z M39,26h2v2h-2V26z"/>
		<path class="st1" d="M38.5,34h3c0.3,0,0.5-0.2,0.5-0.5v-3c0-0.3-0.2-0.5-0.5-0.5h-3c-0.3,0-0.5,0.2-0.5,0.5v3
			C38,33.8,38.2,34,38.5,34z M39,31h2v2h-2V31z"/>
		<path class="st1" d="M38.5,39h3c0.3,0,0.5-0.2,0.5-0.5v-3c0-0.3-0.2-0.5-0.5-0.5h-3c-0.3,0-0.5,0.2-0.5,0.5v3
			C38,38.8,38.2,39,38.5,39z M39,36h2v2h-2V36z"/>
		<path class="st1" d="M19.5,25h-3c-0.3,0-0.5,0.2-0.5,0.5v3c0,0.3,0.2,0.5,0.5,0.5h3c0.3,0,0.5-0.2,0.5-0.5v-3
			C20,25.2,19.8,25,19.5,25z M19,28h-2v-2h2V28z"/>
		<path class="st1" d="M23.5,27h2c0.3,0,0.5-0.2,0.5-0.5v-2c0-0.3-0.2-0.5-0.5-0.5h-2c-0.3,0-0.5,0.2-0.5,0.5v2
			C23,26.8,23.2,27,23.5,27z M24,25h1v1h-1V25z"/>
		<path class="st1" d="M30,24h-2c-0.3,0-0.5,0.2-0.5,0.5v2c0,0.3,0.2,0.5,0.5,0.5h2c0.3,0,0.5-0.2,0.5-0.5v-2
			C30.5,24.2,30.3,24,30,24z M29.5,26h-1v-1h1V26z"/>
		<path class="st1" d="M32,24.5v2c0,0.3,0.2,0.5,0.5,0.5h2c0.3,0,0.5-0.2,0.5-0.5v-2c0-0.3-0.2-0.5-0.5-0.5h-2
			C32.2,24,32,24.2,32,24.5z M33,25h1v1h-1V25z"/>
		<path class="st1" d="M23.5,31h2c0.3,0,0.5-0.2,0.5-0.5v-2c0-0.3-0.2-0.5-0.5-0.5h-2c-0.3,0-0.5,0.2-0.5,0.5v2
			C23,30.8,23.2,31,23.5,31z M24,29h1v1h-1V29z"/>
		<path class="st1" d="M30,28h-2c-0.3,0-0.5,0.2-0.5,0.5v2c0,0.3,0.2,0.5,0.5,0.5h2c0.3,0,0.5-0.2,0.5-0.5v-2
			C30.5,28.2,30.3,28,30,28z M29.5,30h-1v-1h1V30z"/>
		<path class="st1" d="M34.5,28h-2c-0.3,0-0.5,0.2-0.5,0.5v2c0,0.3,0.2,0.5,0.5,0.5h2c0.3,0,0.5-0.2,0.5-0.5v-2
			C35,28.2,34.8,28,34.5,28z M34,30h-1v-1h1V30z"/>
		<path class="st1" d="M23.5,35h2c0.3,0,0.5-0.2,0.5-0.5v-2c0-0.3-0.2-0.5-0.5-0.5h-2c-0.3,0-0.5,0.2-0.5,0.5v2
			C23,34.8,23.2,35,23.5,35z M24,33h1v1h-1V33z"/>
		<path class="st1" d="M30,32h-2c-0.3,0-0.5,0.2-0.5,0.5v2c0,0.3,0.2,0.5,0.5,0.5h2c0.3,0,0.5-0.2,0.5-0.5v-2
			C30.5,32.2,30.3,32,30,32z M29.5,34h-1v-1h1V34z"/>
		<path class="st1" d="M34.5,32h-2c-0.3,0-0.5,0.2-0.5,0.5v2c0,0.3,0.2,0.5,0.5,0.5h2c0.3,0,0.5-0.2,0.5-0.5v-2
			C35,32.2,34.8,32,34.5,32z M34,34h-1v-1h1V34z"/>
		<path class="st1" d="M19.5,30h-3c-0.3,0-0.5,0.2-0.5,0.5v3c0,0.3,0.2,0.5,0.5,0.5h3c0.3,0,0.5-0.2,0.5-0.5v-3
			C20,30.2,19.8,30,19.5,30z M19,33h-2v-2h2V33z"/>
		<path class="st1" d="M19.5,35h-3c-0.3,0-0.5,0.2-0.5,0.5v3c0,0.3,0.2,0.5,0.5,0.5h3c0.3,0,0.5-0.2,0.5-0.5v-3
			C20,35.2,19.8,35,19.5,35z M19,38h-2v-2h2V38z"/>
		<path class="st1" d="M34,41h1v1h-1V41z"/>
		<path class="st1" d="M34,39h1v1h-1V39z"/>
		<path class="st1" d="M34,37h1v1h-1V37z"/>
		<g>
			<g>
				<g>
					<path class="st1" d="M32.3,21.9c-0.1,0-0.1,0-0.2,0l0,0c-0.1-0.1-1.3-0.6-3-0.2l0,0c0,0,0,0-0.1,0h0l0,0c-1.7-0.4-3,0.2-3,0.2
						c-0.1,0-0.1,0-0.2,0c-0.2,0-0.4-0.2-0.4-0.4v-4.2c0-0.2,0.2-0.4,0.4-0.4H26c0-0.1,0.1-0.2,0.2-0.3c0.3-0.1,0.7-0.1,1-0.1
						c0,0,0,0,0,0c0.7,0,1.3,0.2,1.8,0.6c0.6-0.5,1.3-0.6,1.8-0.6c0.3,0,0.7,0,1,0.1c0.1,0,0.2,0.1,0.3,0.3h0.2
						c0.2,0,0.4,0.2,0.4,0.4v4.2c0,0.1-0.1,0.2-0.2,0.3C32.4,21.8,32.3,21.9,32.3,21.9z M28.3,21c0.1,0,0.2,0,0.3,0
						C28.5,21,28.4,21,28.3,21L28.3,21z M29.7,20.9c-0.1,0-0.2,0.1-0.3,0.1C29.5,21,29.6,21,29.7,20.9L29.7,20.9z M29.4,17.8v2.8
						c0.3-0.1,0.8-0.3,1.5-0.3c0.2,0,0.3,0,0.5,0v-3c-0.2,0-0.4,0-0.6,0C30.4,17.2,29.8,17.3,29.4,17.8z M27.2,20.3L27.2,20.3
						c0.7,0,1.2,0.1,1.5,0.3l0-2.8c-0.4-0.4-1-0.5-1.4-0.5c-0.2,0-0.4,0-0.6,0v3C26.8,20.3,27,20.3,27.2,20.3L27.2,20.3z"/>
				</g>
			</g>
		</g>
	</g>
</g>
</svg>
