<?xml version="1.0" encoding="utf-8"?>
<!-- Generator: Adobe Illustrator 24.0.0, SVG Export Plug-In . SVG Version: 6.00 Build 0)  -->
<svg version="1.1" id="Layer_1" xmlns="http://www.w3.org/2000/svg" xmlns:xlink="http://www.w3.org/1999/xlink" x="0px" y="0px"
	 viewBox="0 0 58 58" style="enable-background:new 0 0 58 58;" xml:space="preserve">
<style type="text/css">
	.st0{fill:#7C0F94;}
	.st1{fill:#FFFFFF;}
</style>
<g>
	<circle class="st0" cx="29" cy="29" r="29"/>
	<g>
		<g>
			<g>
				<g>
					<path class="st1" d="M43.6,21.9L43.6,21.9L43.6,21.9l-1.9-0.3c-0.3,0-0.5-0.3-0.4-0.6c0-0.1,0.1-0.2,0.2-0.3l1.6-1.2
						c0.2-0.2,0.3-0.5,0.1-0.7l-1.8-2.4c-0.2-0.2-0.5-0.3-0.7-0.1L39,17.5c-0.2,0.2-0.5,0.1-0.7-0.1c-0.1-0.1-0.1-0.2-0.1-0.4
						l0.3-1.9c0-0.3-0.2-0.5-0.4-0.6l0,0l-3-0.4c-0.3,0-0.5,0.1-0.6,0.4l0,0l-0.3,1.9c0,0.3-0.3,0.5-0.6,0.4c-0.1,0-0.2-0.1-0.3-0.2
						L32.1,15c-0.2-0.2-0.5-0.3-0.7-0.1L30,16.2c-0.7-0.1-1.4-0.1-2,0c-4.4,0.5-7.9,4-8.3,8.5c0,0.1,0,0.3,0,0.4h-0.1
						c-0.2,0-0.4,0.2-0.5,0.4l-0.3,1.6l-1.4-1c-0.2-0.1-0.5-0.1-0.6,0.1l-1.5,1.5c-0.2,0.2-0.2,0.4-0.1,0.6l0.9,1.4L14.5,30
						c-0.2,0.1-0.4,0.3-0.4,0.5v2c0,0.2,0.2,0.4,0.4,0.5l1.6,0.3l-0.9,1.4c-0.1,0.2-0.1,0.5,0.1,0.6l1.5,1.5
						c0.2,0.2,0.4,0.2,0.6,0.1l1.4-0.9l0.3,1.6c0,0.2,0.3,0.4,0.5,0.4h2c0.2,0,0.4-0.2,0.5-0.4l0.3-1.6l1.4,0.9
						c0.2,0.1,0.5,0.1,0.6-0.1l0.8-0.8v1.4c0,0.7,0.4,1.4,1,1.7V42c0,1.1,0.9,2,2,2h2c1.1,0,2-0.9,2-2v-2.8c0.6-0.4,1-1,1-1.7v-2
						c0-0.8,0.4-1.6,1.2-2c0.4-0.3,0.8-0.6,1.2-0.9l-0.7-0.7c-0.3,0.3-0.7,0.6-1,0.8c-1,0.6-1.6,1.7-1.6,2.9v2c0,0.6-0.4,1-1,1h-4
						c-0.6,0-1-0.4-1-1v-2c0-1.1-0.6-2.2-1.6-2.8c-3.9-2.5-5.1-7.7-2.7-11.6c1.5-2.4,4.2-3.9,7.1-3.9c0,0,0,0,0,0.1s0,0.3,0.1,0.4
						l1.2,1.6c0.1,0.2,0.1,0.4,0,0.6s-0.3,0.3-0.5,0.2L28,19.9c-0.3,0-0.5,0.2-0.6,0.4l0,0l-0.4,3c0,0.3,0.2,0.5,0.4,0.6l0,0
						l1.9,0.3c0.3,0,0.5,0.3,0.4,0.6c0,0.1-0.1,0.2-0.2,0.3l-1.6,1.2c-0.2,0.2-0.3,0.5-0.1,0.7l1.8,2.4c0.2,0.2,0.5,0.3,0.7,0.1
						l1.6-1.2c0.2-0.2,0.5-0.1,0.7,0.1c0.1,0.1,0.1,0.2,0.1,0.4l-0.3,1.9c0,0.3,0.1,0.5,0.4,0.6l0,0l3,0.4c0,0,0,0,0.1,0
						c0.2,0,0.5-0.2,0.5-0.4l0.3-1.9c0-0.3,0.3-0.5,0.6-0.4c0.1,0,0.2,0.1,0.3,0.2l1.2,1.6c0.2,0.2,0.5,0.3,0.7,0.1l2.4-1.8
						c0.2-0.2,0.3-0.5,0.1-0.7l-1.2-1.6c-0.1-0.2-0.1-0.4,0-0.6s0.3-0.3,0.5-0.2l1.9,0.3c0.3,0,0.5-0.1,0.6-0.4l0,0l0.4-3
						C44,22.2,43.8,21.9,43.6,21.9z M27.1,39.5h4v1h-4V39.5z M27.1,41.5h4V42c0,0.6-0.4,1-1,1h-2c-0.6,0-1-0.4-1-1V41.5z M23.1,32.9
						c0.3,0.2,0.6,0.4,0.9,0.6c0.5,0.3,0.8,0.7,1,1.3l-1.1,1.1l-1-0.7c-0.5-0.3-1.1-0.2-1.4,0.3c-0.1,0.1-0.1,0.2-0.2,0.4L21.1,37
						h-1.2l-0.3-1.2c-0.1-0.5-0.6-0.9-1.2-0.8c-0.1,0-0.3,0.1-0.4,0.2l-1,0.7L16.1,35l0.7-1c0.3-0.5,0.2-1.1-0.3-1.4
						c-0.1-0.1-0.2-0.1-0.4-0.2L15,32.1V31l1.2-0.3c0.5-0.1,0.9-0.6,0.8-1.2c0-0.1-0.1-0.2-0.2-0.4l-0.7-1l0.9-0.9l1,0.7
						c0.5,0.3,1.1,0.2,1.4-0.3c0.1-0.1,0.1-0.2,0.2-0.4l0.1-0.4c0.1,0.6,0.2,1.1,0.4,1.7c-1.6,0.2-2.8,1.7-2.6,3.3
						c0.2,1.6,1.7,2.8,3.3,2.6C21.8,34.4,22.7,33.8,23.1,32.9z M22.3,32.2c-0.4,1-1.5,1.6-2.5,1.2c-1-0.4-1.6-1.5-1.2-2.5
						c0.3-0.8,1-1.3,1.9-1.3l0,0C20.9,30.5,21.6,31.4,22.3,32.2z M42.7,24.8l-1.4-0.2c-0.8-0.1-1.6,0.5-1.7,1.3
						c-0.1,0.4,0,0.8,0.3,1.1l0.9,1.2l-1.6,1.2l-0.9-1.2c-0.5-0.7-1.4-0.8-2.1-0.3c-0.3,0.2-0.5,0.6-0.6,1l-0.2,1.4l-2-0.3l0.2-1.4
						c0.1-0.8-0.5-1.6-1.3-1.7c-0.4-0.1-0.8,0-1.1,0.3L30,28l-1.2-1.6l1.2-0.9c0.7-0.5,0.8-1.4,0.3-2.1c-0.2-0.3-0.6-0.5-1-0.6
						l-1.4-0.2l0.3-2l1.4,0.2c0.8,0.1,1.6-0.5,1.7-1.3c0.1-0.4,0-0.8-0.3-1.1l-0.9-1.2l1.6-1.2l0.9,1.2c0.5,0.7,1.4,0.8,2.1,0.3
						c0.3-0.2,0.5-0.6,0.6-1l0.2-1.4l2,0.3l-0.2,1.4c-0.1,0.8,0.5,1.6,1.3,1.7c0.4,0.1,0.8,0,1.1-0.3l1.2-0.9L42,19l-1.2,0.9
						c-0.7,0.5-0.8,1.4-0.3,2.1c0.2,0.3,0.6,0.5,1,0.6l1.4,0.2L42.7,24.8z"/>
				</g>
			</g>
			<g>
				<g>
					<path class="st1" d="M35.4,18.7c-2.2,0-4,1.8-4,4s1.8,4,4,4s4-1.8,4-4S37.6,18.7,35.4,18.7z M35.4,25.7c-1.7,0-3-1.3-3-3
						s1.3-3,3-3s3,1.3,3,3C38.4,24.4,37.1,25.7,35.4,25.7z"/>
				</g>
			</g>
			<g>
				<g>
					<rect x="28.6" y="36" class="st1" width="1" height="1.5"/>
				</g>
			</g>
			<g>
				<g>
					<path class="st1" d="M26.9,31.1c-3.1-1.2-4.6-4.7-3.4-7.7c0.5-1.2,1.3-2.2,2.4-2.9l-0.5-0.8c-3.3,2.1-4.2,6.4-2.2,9.6
						c0.8,1.3,2,2.2,3.4,2.8c1.2,0.5,2,1.7,2,3h1C29.6,33.3,28.5,31.8,26.9,31.1z"/>
				</g>
			</g>
			<g>
				<g>
					<rect x="38.5" y="32.5" class="st1" width="3.5" height="1"/>
				</g>
			</g>
			<g>
				<g>
					<rect x="39" y="34.8" transform="matrix(0.6401 -0.7683 0.7683 0.6401 -14.0449 43.573)" class="st1" width="1" height="3.9"/>
				</g>
			</g>
			<g>
				<g>
					<rect x="35.5" y="36.5" class="st1" width="1" height="3.5"/>
				</g>
			</g>
			<g>
				<g>
					
						<rect x="14.6" y="22.1" transform="matrix(0.9701 -0.2425 0.2425 0.9701 -4.9815 4.7124)" class="st1" width="4.1" height="1"/>
				</g>
			</g>
			<g>
				<g>
					
						<rect x="16.9" y="16.2" transform="matrix(0.5812 -0.8137 0.8137 0.5812 -7.6328 21.8142)" class="st1" width="1" height="4.3"/>
				</g>
			</g>
			<g>
				<g>
					
						<rect x="20.1" y="14.1" transform="matrix(0.9688 -0.2477 0.2477 0.9688 -3.3572 5.6079)" class="st1" width="1" height="4.1"/>
				</g>
			</g>
		</g>
	</g>
</g>
</svg>
