<?xml version="1.0" encoding="utf-8"?>
<!-- Generator: Adobe Illustrator 24.0.0, SVG Export Plug-In . SVG Version: 6.00 Build 0)  -->
<svg version="1.1" id="Layer_1" xmlns="http://www.w3.org/2000/svg" xmlns:xlink="http://www.w3.org/1999/xlink" x="0px" y="0px"
	 viewBox="0 0 89.3 21.6" style="enable-background:new 0 0 89.3 21.6;" xml:space="preserve">
<style type="text/css">
	.st0{fill:#FFFFFF;}
</style>
<g>
	<path class="st0" d="M76.9,0.1c-4.7,0-8.4,3.8-8.4,8.4c0,4.7,3.8,8.4,8.4,8.4c4.6,0,8.4-3.8,8.4-8.4C85.3,3.9,81.6,0.1,76.9,0.1
		 M83.5,3.8c-0.4,0.3-0.9,0.6-1.4,0.8c-0.3-0.6-0.6-1.1-1-1.6c0.3-0.2,0.7-0.4,1-0.7C82.6,2.7,83.1,3.2,83.5,3.8 M79.9,1
		c0.7,0.3,1.3,0.6,1.9,1.1c-0.3,0.2-0.6,0.5-0.9,0.7c-0.4-0.5-0.9-0.9-1.4-1.3C79.7,1.3,79.8,1.2,79.9,1 M80.6,2.9
		c-0.5,0.2-0.9,0.4-1.4,0.6C79,3,78.7,2.6,78.5,2.1C78.7,2,79,1.9,79.2,1.7C79.7,2,80.2,2.5,80.6,2.9 M79.6,0.9
		c-0.1,0.1-0.2,0.3-0.4,0.4c-0.4-0.3-0.9-0.6-1.4-0.8C78.4,0.5,79,0.7,79.6,0.9 M78.9,1.5c-0.2,0.1-0.4,0.3-0.7,0.4
		c-0.2-0.4-0.5-0.8-0.8-1.1C78,0.9,78.5,1.2,78.9,1.5 M77.1,0.8c0.3,0.4,0.6,0.8,0.9,1.2c-0.3,0.1-0.6,0.1-0.9,0.2V0.8z M77.1,2.5
		c0.4,0,0.7-0.1,1.1-0.2c0.3,0.4,0.5,0.9,0.7,1.3c-0.6,0.1-1.2,0.2-1.8,0.2V2.5z M76.7,0.8v1.3c-0.3,0-0.6-0.1-0.9-0.2
		C76.1,1.6,76.4,1.2,76.7,0.8 M75.5,1.8c-0.2-0.1-0.4-0.2-0.6-0.4c0.5-0.3,0.9-0.6,1.5-0.8C76.1,1.1,75.8,1.4,75.5,1.8 M76,0.5
		c-0.5,0.2-1,0.5-1.4,0.8c-0.1-0.1-0.3-0.2-0.4-0.4C74.8,0.7,75.4,0.5,76,0.5 M81.8,15c-1.1-0.6-1.1-1.5-1.1-1.8
		c0.1-0.3,0.3-0.2,0.4-0.2c0.7,0,1.5-0.2,2.5-1.2c1.1-1.1,1.4-3.5-0.2-5.1c-1.8-1.7-3.7-1.4-4.9,0.1c-0.3,0.3-0.9,0.6-1.4,0.5
		c-0.8,0-0.3,0.6-0.3,0.7c0,0.1-0.1,0.2-0.2,0.2c-0.3-0.1-0.2,0.3-0.2,0.4c0,0.1-0.1,0.2-0.2,0.2c-0.3,0-0.2,0.3-0.2,0.4
		c0,0.1,0,0.2-0.1,0.3c-0.1,0.1-0.2,0.3-0.2,0.5c0,0.4,0.3,0.6,0.9,1c0.5,0.4,0.6,0.8,0.6,1.1c0,0.3,0,0.7,0.2,1
		c0.1,0.4,0.1,1-0.6,1c-0.9,0-2.6,0.8-2.7,0.8c-0.5,0.2-1.2,0.3-1.7,0.1c-0.3-0.2-0.6-0.4-0.8-0.7c-0.1-0.4,0.1-0.8,0.3-1
		c0.3,0.3,0.8,0.3,1,0.3c0.3,0,1.5-0.2,1.7-0.3c0.2-0.1,0.3,0,0.4,0c0.5,0.2,1.1,0.2,1.4-0.7c0.3-0.9-0.4-0.7-0.4-0.6
		c-0.1,0-0.2,0-0.1-0.1c0.1-0.2-0.1-0.2-0.2-0.2c-0.3,0-0.6,0.2-0.7,0.3c-0.1,0.1-0.2,0.1-0.3,0.1c-0.3-0.2-1.4,0.1-1.7-0.5
		c0-0.1-0.3-2.4-0.4-2.8c0-0.1-0.1-0.2,0-0.4c0.3-0.4,1,0,1.4,0c0.5,0,0.5-0.2,0.7-0.4c0.1-0.2,0.2-0.1,0.3-0.1c0.1-0.1,0-0.2,0-0.2
		c0-0.1,0.1,0,0.1-0.1c0.1-0.1,0-0.2,0-0.3c0.1-0.2,0.4,0,0.2-0.5c-0.1-0.2,0-0.5,0.2-0.7c0.2-0.3,1.1-1.5-0.4-2.8
		C73.5,2.4,72,2.5,71,3.5c-1,1-0.5,2.5-0.4,2.9c0.1,0.4-0.2,0.8-0.5,0.9c-0.3,0.1-0.9,0.5-1.3,0.9c0.1-3.3,2-6.1,5.1-7.3
		c0.1,0.2,0.3,0.3,0.4,0.5c-0.3,0.2-1.1,0.9-1.1,0.9s0.1,0,0.2,0c0.1,0,0.2,0.1,0.2,0.1s0.6-0.6,1-0.8c0.2,0.2,0.5,0.3,0.8,0.4
		c-0.1,0.3-0.5,0.9-0.5,0.9s0.1,0,0.2,0.1c0.1,0,0.1,0.1,0.1,0.1s0.4-0.8,0.6-1c0.3,0.1,0.7,0.2,1,0.2v1.4c-0.2,0-0.7,0-0.9,0
		l-0.1,0l0.1,0.1c0.1,0.1,0.1,0.2,0.1,0.2l0,0l0,0c0.1,0,0.6,0,0.8,0v2.5h0.4V6.1c0.5,0,0.9-0.1,1.5-0.1l0,0L79,5.6l-0.2,0
		c-0.5,0.1-1,0.1-1.5,0.1c0,0-0.1,0-0.2,0V4.2c0.6,0,1.3-0.1,1.9-0.3c0.2,0.4,0.5,1.4,0.5,1.4l0.3-0.1c0,0-0.3-1-0.5-1.4
		c0.5-0.2,1-0.4,1.5-0.6c0.4,0.5,0.7,1,1,1.6C81.6,4.9,81.1,5,81.1,5c0.4,0,0.6,0.1,0.6,0.1S81.9,5.1,82,5c0,0.1,0.1,0.2,0.1,0.2
		l0.5,0.2l-0.1-0.1c0,0-0.1-0.4-0.2-0.4c0.5-0.2,1-0.5,1.4-0.8C84.5,5.4,85,6.9,85,8.5C85,11.1,83.7,13.5,81.8,15"/>
	<path class="st0" d="M67.7,2.3l-0.1,0.1c-0.5,0.4-1.6,1.6-1.5,2.9c0,0,0,0.1,0,0.1c0,0,0.1,0.3,0.1,0.3l0.2-0.1
		c0.7-0.6,1.2-1.7,1.4-2.9l0.1-0.3L67.7,2.3"/>
	<path class="st0" d="M65.4,4.5l-0.1,0.2c-0.1,0.2-0.2,0.7-0.3,1.2c-0.1,0.8-0.1,2,0.6,2.9c0,0,0.1,0.1,0.1,0.1L65.9,9L66,8.5
		c0.1-1,0-2.9-0.4-3.8l-0.1-0.3L65.4,4.5"/>
	<path class="st0" d="M64.6,7.9l0,0.2c-0.1,0.9,0,3,1.7,4.1l0.2,0.1l0-0.2c0-0.8-1-3.2-1.7-4l-0.2-0.2L64.6,7.9"/>
	<path class="st0" d="M64.9,11.7l0,0.1c0.2,1.2,1.4,3.2,3.2,3.7l0.2,0.1l-0.1-0.2c-0.3-0.9-2-3-3.1-3.7l-0.2-0.2L64.9,11.7"/>
	<path class="st0" d="M68.4,4.1l-0.1,0.1C67,5,66.3,6,66.4,7.2c0,0,0,0.3,0,0.3l0.2-0.2c0.7-0.6,1.6-2.1,1.9-3l0.1-0.3L68.4,4.1"/>
	<path class="st0" d="M67.6,6.8L67.6,6.8c-0.4,0.4-1.5,1.6-1.4,3c0,0.2,0.1,0.5,0.2,0.7l0.1,0.2l0.1-0.2c0.5-0.7,1.2-2.7,1.2-3.6
		L67.6,6.8L67.6,6.8"/>
	<path class="st0" d="M67.7,9.3l-0.1,0.1c-0.6,0.8-0.8,1.7-0.8,2.4c0,0.6,0.2,1.1,0.5,1.6l0.1,0.2l0.1-0.2c0.2-0.4,0.4-1.9,0.4-3
		c0-0.4,0-0.7-0.1-1l-0.1-0.3L67.7,9.3"/>
	<path class="st0" d="M68.3,11.9l0,0.1c-0.2,0.5-0.2,1.1-0.2,1.5c0,1.1,0.5,2,1.5,2.6l0.2,0.1l0-0.2c0,0,0-0.2,0-0.2
		c0-0.9-0.7-3.2-1.2-3.9l-0.1-0.2L68.3,11.9"/>
	<path class="st0" d="M66.5,15.5l0.1,0.1c0.7,1.2,1.9,2.7,4.2,2.3l0.2,0l-0.1-0.2c-0.4-0.6-3.2-2.2-4.1-2.3l-0.3,0L66.5,15.5"/>
	<path class="st0" d="M69.8,18.5l-0.4,0.1l0.3,0.1c1.4,0.6,3.2,0.8,4.3,0.4c0.4-0.1,0.6-0.3,0.9-0.6c1.8,0.2,3.5,1.7,4.6,3l0.1,0.1
		l0.1,0c0.1,0,0.3-0.2,0.4-0.2l0.1-0.1L80,21.1c-1-1.4-2.7-2.2-2.8-2.2C75.8,18.1,73.2,17.6,69.8,18.5"/>
	<path class="st0" d="M69.9,14.7l0,0.1c0.2,1.3,0.8,3.1,3,2.9l0.1,0l0-0.1c-0.2-0.6-2.2-2.4-3-2.9l-0.2-0.1L69.9,14.7"/>
	<path class="st0" d="M86,2.2l0.1,0.3c0.2,1.2,0.7,2.3,1.4,2.9l0.2,0.1c0,0,0.1-0.2,0.1-0.3c0,0,0-0.1,0-0.1c0.2-1.3-1-2.4-1.5-2.9
		l-0.1-0.1L86,2.2"/>
	<path class="st0" d="M88.4,4.4l-0.1,0.3c-0.4,0.9-0.5,2.9-0.4,3.8L88,9l0.1-0.1c0,0,0.1-0.1,0.1-0.1c0.7-0.9,0.7-2.1,0.6-2.9
		c-0.1-0.6-0.2-1-0.3-1.2l-0.1-0.2L88.4,4.4"/>
	<path class="st0" d="M89.3,7.8L89.1,8c-0.7,0.9-1.6,3.2-1.7,4l0,0.2l0.2-0.1c1.7-1.1,1.7-3.2,1.7-4.1l0-0.2L89.3,7.8"/>
	<path class="st0" d="M89,11.6l-0.2,0.2c-1.1,0.7-2.8,2.8-3.1,3.7l-0.1,0.2l0.2-0.1c1.8-0.6,2.9-2.5,3.2-3.7l0-0.1L89,11.6"/>
	<path class="st0" d="M85.3,4l0.1,0.3c0.2,0.9,1.1,2.4,1.8,3l0.2,0.2l0-0.3c0.1-1.2-0.5-2.2-1.8-3l-0.1-0.1L85.3,4"/>
	<path class="st0" d="M86.1,6.7l0,0.3c0,0.9,0.7,2.8,1.2,3.6l0.1,0.2l0.1-0.2c0.1-0.2,0.1-0.5,0.1-0.7c0.1-1.4-1-2.6-1.3-2.9
		l-0.1-0.1L86.1,6.7"/>
	<path class="st0" d="M86.1,9.2L86,9.4c-0.1,0.2-0.1,0.6-0.1,1c0,1.1,0.2,2.6,0.4,3l0.1,0.2l0.1-0.2c0.3-0.5,0.5-1.1,0.5-1.6
		c0-0.8-0.3-1.6-0.8-2.4l-0.1-0.1L86.1,9.2"/>
	<path class="st0" d="M85.5,11.8L85.3,12c-0.5,0.7-1.2,3-1.2,3.9c0,0,0,0.2,0,0.2l0,0.2l0.2-0.1c0.9-0.6,1.4-1.5,1.5-2.6
		c0-0.5-0.1-1-0.2-1.5l0-0.1L85.5,11.8"/>
	<path class="st0" d="M87.4,15.4l-0.3,0c-1,0.2-3.7,1.7-4.1,2.3l-0.1,0.2l0.2,0c2.3,0.4,3.5-1.1,4.2-2.3l0.1-0.1L87.4,15.4"/>
	<path class="st0" d="M76.6,18.8c-0.1,0-1.7,0.9-2.8,2.2l-0.1,0.1l0.1,0.1c0.1,0.1,0.2,0.2,0.4,0.2l0.1,0l0.1-0.1
		c1-1.2,2.7-2.8,4.5-3c0.3,0.3,0.5,0.5,0.9,0.6c1,0.4,2.8,0.2,4.3-0.4l0.3-0.1L84,18.5C80.6,17.6,78,18.1,76.6,18.8"/>
	<path class="st0" d="M84,14.6l-0.2,0.1c-0.7,0.5-2.8,2.3-3,2.9l0,0.1l0.1,0c2.3,0.2,2.8-1.6,3-2.9l0-0.1L84,14.6"/>
	<path class="st0" d="M26.4,0.9h2.9v2.6h-2.9V0.9z M29,19.1h-2.4V6.4H29V19.1z"/>
	<path class="st0" d="M8.5,6.5h2.4v12.7H8.5v-1.9h0c-1,1.6-2.6,2.2-4.3,2.2c-2.6,0-4.2-2-4.2-4.6V6.5h2.4V14c0,2.2,0.5,3.8,2.8,3.8
		c1,0,2.3-0.5,2.8-1.8c0.5-1.2,0.5-2.7,0.5-3V6.5"/>
	<path class="st0" d="M15.7,8.3L15.7,8.3c0.9-1.6,2.6-2.2,3.9-2.2c0.9,0,4.8,0.2,4.8,4.3v8.8H22v-8c0-2.1-0.9-3.2-2.9-3.2
		c0,0-1.3-0.1-2.3,0.9c-0.4,0.4-1,0.9-1,3.4v6.9h-2.4V6.5h2.3V8.3"/>
	<path class="st0" d="M39,10.5c-0.1-1.6-0.9-2.7-2.6-2.7c-2.3,0-3.2,2-3.2,4.9c0,3,0.9,4.9,3.2,4.9c1.6,0,2.6-1,2.7-2.8h2.4
		c-0.2,2.8-2.3,4.6-5.1,4.6c-4,0-5.6-2.9-5.6-6.6c0-3.7,1.9-6.8,5.8-6.8c2.7,0,4.7,1.7,4.8,4.4H39"/>
	<path class="st0" d="M45.1,13.2c-0.2,2.2,0.7,4.5,3.2,4.5c1.9,0,2.8-0.7,3.1-2.6h2.5c-0.4,2.9-2.6,4.3-5.6,4.3
		c-4,0-5.6-2.9-5.6-6.6c0-3.7,1.9-6.8,5.8-6.8c3.8,0.1,5.5,2.5,5.5,5.9v1.2H45.1 M51.4,11.6c0.1-2.1-0.9-3.7-3.2-3.7
		c-2,0-3.2,1.7-3.2,3.7H51.4z"/>
	<path class="st0" d="M56.6,19.1V8.1h-2.2V6.5h2.2V3.8c0.1-2.8,2.2-3.5,3.9-3.5c0.6,0,1.1,0.1,1.7,0.2v2c-0.4,0-0.8-0.1-1.2-0.1
		c-1.4,0-2.1,0.4-2.1,1.7v2.3h2.9v1.7H59v10.9H56.6"/>
</g>
</svg>
