<?xml version="1.0" encoding="utf-8"?>
<!-- Generator: Adobe Illustrator 16.0.0, SVG Export Plug-In . SVG Version: 6.00 Build 0)  -->
<!DOCTYPE svg PUBLIC "-//W3C//DTD SVG 1.1//EN" "http://www.w3.org/Graphics/SVG/1.1/DTD/svg11.dtd">
<svg version="1.1" id="Layer_1" xmlns="http://www.w3.org/2000/svg" xmlns:xlink="http://www.w3.org/1999/xlink" x="0px" y="0px"
	 viewBox="0 0 24 24" enable-background="new 0 0 24 24" xml:space="preserve">
<g>
	<circle fill="#BDC0C2" cx="12" cy="12" r="12"/>
	<ellipse fill="#FFFFFF" cx="12" cy="10.465" rx="4.668" ry="6.465"/>
	<path fill="#FFFFFF" d="M11.927,16.518c-3.908,0-7.4,0.936-9.725,2.407C4.376,21.994,7.952,24,12,24
		c4.019,0,7.573-1.978,9.751-5.011C19.429,17.481,15.891,16.518,11.927,16.518z"/>
	<path fill="#FFFFFF" d="M13.208,19.621h-2.416c-0.707,0-1.286-0.579-1.286-1.287v-5.047c0-0.708,0.579-1.287,1.286-1.287h2.416
		c0.707,0,1.286,0.579,1.286,1.287v5.047C14.494,19.042,13.915,19.621,13.208,19.621z"/>
	<path fill="#FFFFFF" d="M8.069,10.833c0.14,1.037-0.091,1.936-0.514,2.008c-0.424,0.072-0.881-0.71-1.021-1.747
		c-0.139-1.037,0.092-1.935,0.515-2.007C7.473,9.014,7.929,9.796,8.069,10.833z"/>
	<path fill="#FFFFFF" d="M15.931,10.833c-0.14,1.037,0.091,1.936,0.515,2.008c0.424,0.072,0.88-0.71,1.02-1.747
		s-0.09-1.935-0.514-2.007S16.07,9.796,15.931,10.833z"/>
	<path fill="#FFFFFF" d="M7.495,10.211c-0.157-1.035-0.314-2.07-0.471-3.105C6.968,6.73,6.912,6.334,7.05,5.98
		c0.137-0.354,0.539-0.637,0.895-0.504c-0.143-0.72,0.654-1.251,1.349-1.491c1.163-0.4,2.41-0.604,3.63-0.446
		c1.22,0.157,2.411,0.697,3.233,1.612c0.261,0.29,0.484,0.618,0.608,0.987c0.239,0.71,0.087,1.485-0.066,2.219
		c-0.123,0.583-0.245,1.165-0.367,1.748c-0.028,0.133-0.059,0.272-0.149,0.374c-0.146,0.161-0.39,0.173-0.605,0.174
		c-2.315,0.005-4.63,0.01-6.944,0.015c-0.436,0-1.004-0.106-1.061-0.538"/>
</g>
</svg>
