<?xml version="1.0" encoding="utf-8"?>
<!-- Generator: Adobe Illustrator 24.0.0, SVG Export Plug-In . SVG Version: 6.00 Build 0)  -->
<svg version="1.1" id="Layer_1" xmlns="http://www.w3.org/2000/svg" xmlns:xlink="http://www.w3.org/1999/xlink" x="0px" y="0px"
	 viewBox="0 0 26 26" style="enable-background:new 0 0 26 26;" xml:space="preserve">
<g>
	<g>
		<path d="M14,5.3c0-0.5-0.4-1-1-1s-1,0.4-1,1s0.4,1,1,1S14,5.8,14,5.3z M12.7,5.3C12.7,5.1,12.8,5,13,5s0.3,0.1,0.3,0.3
			S13.2,5.6,13,5.6S12.7,5.4,12.7,5.3z"/>
		<path d="M4.8,16c-0.5,0.3-0.6,0.9-0.4,1.3c0.2,0.3,0.5,0.5,0.8,0.5c0.2,0,0.3,0,0.5-0.1c0.5-0.3,0.6-0.9,0.4-1.3
			C5.8,15.9,5.2,15.8,4.8,16z M5.4,17.1C5.2,17.2,5,17.1,5,17c-0.1-0.2,0-0.4,0.1-0.4c0.2-0.1,0.4,0,0.4,0.1
			C5.6,16.9,5.6,17.1,5.4,17.1z"/>
		<path d="M21.2,16c-0.5-0.3-1.1-0.1-1.3,0.4c-0.3,0.5-0.1,1.1,0.4,1.3l0,0c0.2,0.1,0.3,0.1,0.5,0.1c0.3,0,0.7-0.2,0.8-0.5
			C21.8,16.9,21.7,16.3,21.2,16z M21,17c-0.1,0.2-0.3,0.2-0.4,0.1c-0.2-0.1-0.2-0.3-0.1-0.4c0.1-0.2,0.3-0.2,0.4-0.1
			C21.1,16.7,21.1,16.9,21,17z"/>
		<path d="M21.9,14.9c-0.5-0.3-1.1-0.4-1.7-0.2c-0.5,0.1-1,0.5-1.3,0.9l-2.3-1.2v-2.8l3.6-1.8c0.2,0.3,0.5,0.5,0.8,0.6
			c0.1,0,0.3,0.1,0.4,0.1c0.3,0,0.6-0.1,0.8-0.2c0.4-0.2,0.6-0.6,0.8-1c0.1-0.5,0-0.9-0.2-1.3c-0.2-0.4-0.6-0.6-1-0.8
			c-0.4-0.1-0.9-0.1-1.2,0.2c-0.4,0.2-0.6,0.6-0.8,1c-0.1,0.3-0.1,0.6,0,0.8l-3.3,1.6v-2h-3.2V7.5c1.1-0.2,1.9-1.1,1.9-2.2
			C15.3,4,14.2,3,13,3s-2.3,1-2.3,2.3c0,1.1,0.8,2.1,1.9,2.2v1.3H9.5v2.1L6.2,9.2c0.1-0.3,0.1-0.6,0-0.8C6.1,8,5.8,7.6,5.4,7.4
			C5,7.2,4.6,7.1,4.2,7.2C3.8,7.4,3.4,7.6,3.2,8C3,8.4,2.9,8.8,3.1,9.2c0.1,0.4,0.4,0.8,0.8,1c0.2,0.1,0.5,0.2,0.8,0.2
			c0.1,0,0.3,0,0.4-0.1c0.3-0.1,0.6-0.3,0.8-0.6l3.6,1.8v2.8l-2.3,1.2c-0.3-0.4-0.7-0.8-1.3-0.9c-0.6-0.2-1.2-0.1-1.7,0.2
			c-1.1,0.6-1.4,2-0.8,3.1c0.4,0.7,1.2,1.1,2,1.1c0.4,0,0.8-0.1,1.1-0.3c0.9-0.5,1.3-1.7,1-2.7l2.1-1v2.1h3.2v2.6
			c-0.7,0.1-1.3,0.8-1.3,1.6c0,0.9,0.7,1.6,1.6,1.6s1.6-0.7,1.6-1.6c0-0.8-0.6-1.4-1.3-1.6v-2.6h3.2V15l2.1,1c-0.3,1,0.1,2.1,1,2.7
			c0.4,0.2,0.7,0.3,1.1,0.3c0.8,0,1.5-0.4,2-1.1C23.3,16.9,22.9,15.5,21.9,14.9L21.9,14.9z M20.5,8.6C20.6,8.4,20.7,8.1,21,8
			c0.2-0.1,0.3-0.1,0.5-0.1c0.3,0,0.7,0.2,0.8,0.5c0.1,0.2,0.2,0.5,0.1,0.7s-0.2,0.5-0.5,0.6c-0.5,0.3-1.1,0.1-1.3-0.4
			C20.4,9.1,20.4,8.8,20.5,8.6L20.5,8.6z M11.4,5.3c0-0.9,0.7-1.6,1.6-1.6c0.9,0,1.6,0.7,1.6,1.6S13.9,6.9,13,6.9S11.4,6.1,11.4,5.3
			L11.4,5.3z M5.5,9.3C5.2,9.8,4.6,9.9,4.1,9.6C3.9,9.5,3.7,9.3,3.7,9.1c-0.1-0.2,0-0.5,0.1-0.7C4,8,4.3,7.8,4.6,7.8
			c0.2,0,0.3,0,0.5,0.1s0.4,0.3,0.5,0.6C5.6,8.8,5.6,9.1,5.5,9.3L5.5,9.3z M6.1,18.3c-0.8,0.4-1.8,0.2-2.2-0.6s-0.2-1.8,0.6-2.2
			c0.2-0.1,0.5-0.2,0.8-0.2c0.1,0,0.3,0,0.4,0.1c0.4,0.1,0.8,0.4,1,0.8C7.1,16.8,6.8,17.8,6.1,18.3z M14,21.4c0,0.5-0.4,1-1,1
			s-1-0.4-1-1s0.4-1,1-1S14,20.9,14,21.4z M15.9,16.5h-5.8v-7h5.8V16.5z M22.1,17.7c-0.4,0.8-1.4,1-2.2,0.6s-1-1.4-0.6-2.2
			c0.2-0.4,0.6-0.6,1-0.8c0.4-0.1,0.9-0.1,1.2,0.2C22.3,15.9,22.6,16.9,22.1,17.7L22.1,17.7z"/>
		<path d="M15.3,12.7h-1.9v0.6H12V14h-1.3v1.9h4.5v-3.2H15.3z M11.4,14.6H12v0.6h-0.6V14.6z M12.7,15.3V14h0.6v1.3H12.7z M14.6,15.3
			H14v-1.9h0.6V15.3z"/>
		<path d="M10.7,10.1h0.6v0.6h-0.6V10.1z"/>
		<path d="M12,10.1h3.2v0.6H12V10.1z"/>
		<path d="M10.7,11.4h4.5V12h-4.5V11.4z"/>
	</g>
</g>
</svg>
