<?xml version="1.0" encoding="utf-8"?>
<!-- Generator: Adobe Illustrator 24.0.0, SVG Export Plug-In . SVG Version: 6.00 Build 0)  -->
<svg version="1.1" id="Layer_1" xmlns="http://www.w3.org/2000/svg" xmlns:xlink="http://www.w3.org/1999/xlink" x="0px" y="0px"
	 viewBox="0 0 26 26" style="enable-background:new 0 0 26 26;" xml:space="preserve">
<g>
	<path d="M6.2,23c1.8,0,3.2-1.4,3.2-3.2c0-1.8-1.4-3.2-3.2-3.2S3,18,3,19.8C3,21.6,4.4,23,6.2,23z M4.9,22v-0.3c0-0.5,0.4-1,1-1h0.6
		c0.5,0,1,0.4,1,1V22c-0.4,0.2-0.8,0.3-1.3,0.3C5.8,22.4,5.3,22.2,4.9,22z M6.2,20.1c-0.4,0-0.6-0.3-0.6-0.6s0.3-0.6,0.6-0.6
		s0.6,0.3,0.6,0.6S6.6,20.1,6.2,20.1z M6.2,17.2c1.4,0,2.6,1.2,2.6,2.6c0,0.7-0.3,1.3-0.7,1.7c-0.1-0.6-0.4-1-0.9-1.2
		c0.2-0.2,0.3-0.5,0.3-0.8c0-0.7-0.6-1.3-1.3-1.3s-1.3,0.6-1.3,1.3c0,0.3,0.1,0.6,0.3,0.8c-0.5,0.2-0.8,0.7-0.9,1.2
		c-0.4-0.5-0.7-1.1-0.7-1.7C3.6,18.4,4.8,17.2,6.2,17.2z"/>
	<path d="M19.8,16.5c-1.8,0-3.2,1.4-3.2,3.2c0,1.8,1.4,3.2,3.2,3.2c1.8,0,3.2-1.4,3.2-3.2C23,18,21.6,16.5,19.8,16.5z M18.5,22v-0.3
		c0-0.5,0.4-1,1-1h0.6c0.5,0,1,0.4,1,1V22c-0.4,0.2-0.8,0.3-1.3,0.3C19.3,22.4,18.9,22.2,18.5,22z M19.8,20.1
		c-0.4,0-0.6-0.3-0.6-0.6s0.3-0.6,0.6-0.6c0.4,0,0.6,0.3,0.6,0.6S20.1,20.1,19.8,20.1z M21.7,21.5c-0.1-0.6-0.4-1-0.9-1.2
		c0.2-0.2,0.3-0.5,0.3-0.8c0-0.7-0.6-1.3-1.3-1.3c-0.7,0-1.3,0.6-1.3,1.3c0,0.3,0.1,0.6,0.3,0.8c-0.5,0.2-0.8,0.7-0.9,1.2
		c-0.4-0.5-0.7-1.1-0.7-1.7c0-1.4,1.2-2.6,2.6-2.6s2.6,1.2,2.6,2.6C22.4,20.4,22.1,21,21.7,21.5z"/>
	<path d="M16.2,19.8c0-1.8-1.4-3.2-3.2-3.2S9.8,18,9.8,19.8c0,1.8,1.4,3.2,3.2,3.2S16.2,21.6,16.2,19.8z M11.7,22v-0.3
		c0-0.5,0.4-1,1-1h0.6c0.5,0,1,0.4,1,1V22c-0.4,0.2-0.8,0.3-1.3,0.3S12.1,22.2,11.7,22z M13,20.1c-0.4,0-0.6-0.3-0.6-0.6
		s0.3-0.6,0.6-0.6s0.6,0.3,0.6,0.6S13.4,20.1,13,20.1z M10.4,19.8c0-1.4,1.2-2.6,2.6-2.6s2.6,1.2,2.6,2.6c0,0.7-0.3,1.3-0.7,1.7
		c-0.1-0.6-0.4-1-0.9-1.2c0.2-0.2,0.3-0.5,0.3-0.8c0-0.7-0.6-1.3-1.3-1.3s-1.3,0.6-1.3,1.3c0,0.3,0.1,0.6,0.3,0.8
		c-0.5,0.2-0.8,0.7-0.9,1.2C10.7,21,10.4,20.4,10.4,19.8z"/>
	<path d="M19,14.7l-0.4,0.5l1,0.6c0.1,0,0.1,0.1,0.2,0.1c0.1,0,0.1,0,0.2-0.1l1-0.6l-0.4-0.5L20.1,15v-1.7c0-0.2-0.1-0.3-0.3-0.3
		h-6.5v-1.6h-0.6V13H6.2c-0.2,0-0.3,0.1-0.3,0.3V15l-0.5-0.3l-0.4,0.5l1,0.6c0.1,0,0.1,0.1,0.2,0.1c0.1,0,0.1,0,0.2-0.1l1-0.6
		L7,14.7L6.5,15v-1.3h6.1V15l-0.5-0.3l-0.4,0.5l1,0.6c0.1,0,0.1,0.1,0.2,0.1s0.1,0,0.2-0.1l1-0.6l-0.4-0.5L13.3,15v-1.3h6.1V15
		L19,14.7z"/>
	<path d="M18.5,5.6c-0.6,0-1.2,0.2-1.7,0.5C16.5,4.3,14.9,3,13,3c-2.1,0-3.9,1.7-3.9,3.9s1.7,3.9,3.9,3.9c1.1,0,2.1-0.4,2.8-1.2
		c0.4,1.1,1.5,1.8,2.7,1.8c1.6,0,2.9-1.3,2.9-2.9S20.1,5.6,18.5,5.6z M11.4,9.7V8.9c0-0.6,0.5-1,1-1h1.2c0.3,0,0.5,0.1,0.7,0.3
		c0.2,0.2,0.3,0.4,0.3,0.7v0.8c-0.5,0.3-1,0.4-1.6,0.4C12.4,10.1,11.9,9.9,11.4,9.7z M13,7.2c-0.5,0-1-0.4-1-1s0.4-1,1-1s1,0.4,1,1
		S13.5,7.2,13,7.2z M15.3,9.2V8.9c0-0.4-0.2-0.9-0.5-1.2c-0.2-0.2-0.4-0.3-0.6-0.4c0.3-0.3,0.4-0.7,0.4-1.1c0-0.9-0.7-1.6-1.6-1.6
		s-1.6,0.7-1.6,1.6c0,0.4,0.2,0.8,0.4,1.1c-0.6,0.2-1.1,0.8-1.1,1.5v0.3c-0.6-0.6-1-1.4-1-2.3c0-1.8,1.4-3.2,3.2-3.2
		c1.7,0,3.1,1.3,3.2,3c-0.4,0.5-0.6,1.1-0.6,1.8c0,0.1,0,0.2,0,0.3C15.5,8.9,15.4,9,15.3,9.2z M18.5,10.7c-1.2,0-2.3-1-2.3-2.3
		s1-2.3,2.3-2.3s2.3,1,2.3,2.3C20.7,9.7,19.7,10.7,18.5,10.7z"/>
	<path d="M18.5,7.5c0.2,0,0.3,0.1,0.3,0.3h0.6c0-0.4-0.3-0.8-0.6-0.9V6.5h-0.6v0.4c-0.4,0.1-0.6,0.5-0.6,0.9c0,0.5,0.4,1,1,1
		c0.2,0,0.3,0.1,0.3,0.3s-0.1,0.3-0.3,0.3s-0.3-0.1-0.3-0.3h-0.6c0,0.4,0.3,0.8,0.6,0.9v0.4h0.6V10c0.4-0.1,0.6-0.5,0.6-0.9
		c0-0.5-0.4-1-1-1c-0.2,0-0.3-0.1-0.3-0.3C18.2,7.7,18.3,7.5,18.5,7.5z"/>
</g>
</svg>
