<?xml version="1.0" encoding="utf-8"?>
<!-- Generator: Adobe Illustrator 24.0.0, SVG Export Plug-In . SVG Version: 6.00 Build 0)  -->
<svg version="1.1" id="Layer_1" xmlns="http://www.w3.org/2000/svg" xmlns:xlink="http://www.w3.org/1999/xlink" x="0px" y="0px"
	 viewBox="0 0 26 26" style="enable-background:new 0 0 26 26;" xml:space="preserve">
<g>
	<path d="M10.1,15.3l0.6,0.6c0.2,0.2,0.5,0.2,0.8,0l0.4-0.4c0.1,0,0.1,0.1,0.2,0.1v0.5c0,0.3,0.2,0.5,0.5,0.5h0.9
		c0.3,0,0.5-0.2,0.5-0.5v-0.5c0.1,0,0.1,0,0.2-0.1l0.4,0.4c0.2,0.2,0.5,0.2,0.8,0l0.6-0.6c0.2-0.2,0.2-0.5,0-0.8l-0.4-0.4
		c0-0.1,0.1-0.1,0.1-0.2h0.5c0.3,0,0.5-0.2,0.5-0.5v-0.9c0-0.3-0.2-0.5-0.5-0.5h-0.5c0-0.1,0-0.1-0.1-0.2l0.4-0.4
		c0.2-0.2,0.2-0.5,0-0.8l-0.6-0.6c-0.2-0.2-0.5-0.2-0.8,0l-0.4,0.4c-0.1,0-0.1-0.1-0.2-0.1V9.9c0-0.3-0.2-0.5-0.5-0.5h-0.9
		c-0.3,0-0.5,0.2-0.5,0.5v0.5c-0.1,0-0.1,0-0.2,0.1l-0.4-0.4c-0.2-0.2-0.5-0.2-0.8,0l-0.6,0.6c-0.2,0.2-0.2,0.5,0,0.8l0.4,0.4
		c0,0.1-0.1,0.1-0.1,0.2H9.9c-0.3,0-0.5,0.2-0.5,0.5v0.9c0,0.3,0.2,0.5,0.5,0.5h0.5c0,0.1,0,0.1,0.1,0.2l-0.4,0.4
		C9.9,14.7,9.9,15.1,10.1,15.3z M10.5,13.4H9.9v-0.7h0.5c0.2,0,0.4-0.1,0.5-0.4c0-0.1,0.1-0.1,0.1-0.2c0.1-0.2,0.1-0.4-0.1-0.6
		l-0.4-0.4l0.5-0.5l0.4,0.4c0.2,0.2,0.4,0.2,0.6,0.1c0.1,0,0.1-0.1,0.2-0.1c0.2-0.1,0.4-0.3,0.4-0.5V9.9h0.7v0.5
		c0,0.2,0.1,0.4,0.4,0.5c0.1,0,0.1,0.1,0.2,0.1c0.2,0.1,0.4,0.1,0.6-0.1l0.4-0.4l0.5,0.5l-0.4,0.4c-0.2,0.2-0.2,0.4-0.1,0.6
		c0,0.1,0.1,0.1,0.1,0.2c0.1,0.2,0.3,0.4,0.5,0.4h0.5v0.7h-0.5c-0.2,0-0.4,0.1-0.5,0.4c0,0.1-0.1,0.1-0.1,0.2
		c-0.1,0.2-0.1,0.4,0.1,0.6l0.4,0.4l-0.5,0.5l-0.4-0.4c-0.2-0.2-0.4-0.2-0.6-0.1c-0.1,0-0.1,0.1-0.2,0.1c-0.2,0.1-0.4,0.3-0.4,0.5
		v0.5h-0.7v-0.5c0-0.2-0.1-0.4-0.4-0.5c-0.1,0-0.1-0.1-0.2-0.1c-0.2-0.1-0.4-0.1-0.6,0.1l-0.4,0.4l-0.5-0.5l0.4-0.4
		c0.2-0.2,0.2-0.4,0.1-0.6c0-0.1-0.1-0.1-0.1-0.2C10.9,13.5,10.7,13.4,10.5,13.4L10.5,13.4z"/>
	<path d="M13,14.6c0.9,0,1.6-0.7,1.6-1.6c0-0.9-0.7-1.6-1.6-1.6s-1.6,0.7-1.6,1.6C11.4,13.9,12.1,14.6,13,14.6z M13,12
		c0.5,0,1,0.4,1,1c0,0.5-0.4,1-1,1c-0.5,0-1-0.4-1-1S12.5,12,13,12z"/>
	<path d="M6.7,10.4c2,0,3.7-1.7,3.7-3.7c0-2-1.7-3.7-3.7-3.7S3,4.7,3,6.7C3,8.7,4.6,10.4,6.7,10.4z M8.6,9.1c-0.6,0.5-1.2,0.7-2,0.7
		c-0.7,0-1.4-0.2-2-0.7c0-0.6,0.5-1,1-1h1.9C8.2,8,8.6,8.5,8.6,9.1L8.6,9.1z M6.7,3.6c1.7,0,3.1,1.4,3.1,3.1c0,0.7-0.2,1.3-0.6,1.9
		C8.9,7.9,8.3,7.5,7.6,7.5H5.7C5,7.5,4.4,7.9,4.2,8.5C3.8,8,3.6,7.4,3.6,6.7C3.6,5,5,3.6,6.7,3.6z"/>
	<path d="M19.3,15.6c-2,0-3.7,1.7-3.7,3.7c0,2,1.6,3.7,3.7,3.7c2,0,3.7-1.6,3.7-3.7C23,17.3,21.3,15.6,19.3,15.6z M21.3,21.7
		c-1.1,0.9-2.8,0.9-3.9,0c0-0.6,0.5-1,1-1h1.9C20.8,20.7,21.3,21.1,21.3,21.7z M21.8,21.2c-0.2-0.6-0.8-1.1-1.5-1.1h-1.9
		c-0.7,0-1.3,0.5-1.5,1.1c-0.4-0.5-0.6-1.2-0.6-1.9c0-1.7,1.4-3.1,3.1-3.1c1.7,0,3.1,1.4,3.1,3.1C22.4,20,22.2,20.7,21.8,21.2z"/>
	<path d="M7.7,6.6c0.6-0.6,0.6-1.5,0-2h0C7.1,4,6.2,4,5.7,4.5c-0.6,0.6-0.6,1.5,0,2C6.2,7.1,7.1,7.1,7.7,6.6z M6.1,4.9
		c0.3-0.3,0.9-0.3,1.2,0h0c0.3,0.3,0.3,0.9,0,1.2c-0.3,0.3-0.9,0.3-1.2,0C5.8,5.8,5.8,5.3,6.1,4.9z"/>
	<g>
		<path d="M6.7,23c2,0,3.7-1.7,3.7-3.7c0-2-1.7-3.7-3.7-3.7S3,17.3,3,19.3C3,21.3,4.6,23,6.7,23z M8.6,21.7c-0.6,0.5-1.2,0.7-2,0.7
			c-0.7,0-1.4-0.2-2-0.7c0-0.6,0.5-1,1-1h1.9C8.2,20.7,8.6,21.1,8.6,21.7L8.6,21.7z M6.7,16.2c1.7,0,3.1,1.4,3.1,3.1
			c0,0.7-0.2,1.3-0.6,1.9c-0.2-0.6-0.8-1.1-1.5-1.1H5.7c-0.7,0-1.3,0.5-1.5,1.1c-0.4-0.5-0.6-1.2-0.6-1.9C3.6,17.6,5,16.2,6.7,16.2z
			"/>
		<path d="M7.7,19.2c0.6-0.6,0.6-1.5,0-2h0c-0.6-0.6-1.5-0.6-2,0c-0.6,0.6-0.6,1.5,0,2C6.2,19.8,7.1,19.8,7.7,19.2z M6.1,17.6
			c0.3-0.3,0.9-0.3,1.2,0h0c0.3,0.3,0.3,0.9,0,1.2c-0.3,0.3-0.9,0.3-1.2,0C5.8,18.4,5.8,17.9,6.1,17.6z"/>
	</g>
	<g>
		<path d="M19.3,10.4c2,0,3.7-1.7,3.7-3.7c0-2-1.7-3.7-3.7-3.7s-3.7,1.7-3.7,3.7C15.6,8.7,17.3,10.4,19.3,10.4z M21.3,9.1
			c-0.6,0.5-1.2,0.7-2,0.7c-0.7,0-1.4-0.2-2-0.7c0-0.6,0.5-1,1-1h1.9C20.8,8,21.3,8.5,21.3,9.1L21.3,9.1z M19.3,3.6
			c1.7,0,3.1,1.4,3.1,3.1c0,0.7-0.2,1.3-0.6,1.9c-0.2-0.6-0.8-1.1-1.5-1.1h-1.9c-0.7,0-1.3,0.5-1.5,1.1c-0.4-0.5-0.6-1.2-0.6-1.9
			C16.2,5,17.6,3.6,19.3,3.6z"/>
		<path d="M20.3,6.6c0.6-0.6,0.6-1.5,0-2h0c-0.6-0.6-1.5-0.6-2,0c-0.6,0.6-0.6,1.5,0,2C18.9,7.1,19.8,7.1,20.3,6.6z M18.7,4.9
			c0.3-0.3,0.9-0.3,1.2,0h0c0.3,0.3,0.3,0.9,0,1.2c-0.3,0.3-0.9,0.3-1.2,0C18.4,5.8,18.4,5.3,18.7,4.9z"/>
	</g>
	<path d="M20.3,17.2c-0.6-0.6-1.5-0.6-2,0c-0.6,0.6-0.6,1.5,0,2c0.6,0.6,1.5,0.6,2,0C20.9,18.6,20.9,17.7,20.3,17.2L20.3,17.2z
		 M19.9,18.8c-0.3,0.3-0.9,0.3-1.2,0c-0.3-0.3-0.3-0.9,0-1.2c0.3-0.3,0.9-0.3,1.2,0C20.2,17.9,20.2,18.4,19.9,18.8z"/>
	<path d="M14.8,7c0.2,0,0.3-0.1,0.3-0.3c0-0.2-0.1-0.3-0.3-0.3h-3.7c-0.2,0-0.3,0.1-0.3,0.3C10.9,6.8,11,7,11.2,7H14.8z"/>
	<path d="M11.2,19c-0.2,0-0.3,0.1-0.3,0.3s0.1,0.3,0.3,0.3h3.7c0.2,0,0.3-0.1,0.3-0.3S15,19,14.8,19H11.2z"/>
	<path d="M7,14.8v-3.7c0-0.2-0.1-0.3-0.3-0.3S6.4,11,6.4,11.2v3.7c0,0.2,0.1,0.3,0.3,0.3S7,15,7,14.8z"/>
	<path d="M19.6,14.8v-3.7c0-0.2-0.1-0.3-0.3-0.3c-0.2,0-0.3,0.1-0.3,0.3v3.7c0,0.2,0.1,0.3,0.3,0.3C19.5,15.1,19.6,15,19.6,14.8z"/>
</g>
</svg>
