<?xml version="1.0" encoding="utf-8"?>
<!-- Generator: Adobe Illustrator 24.0.0, SVG Export Plug-In . SVG Version: 6.00 Build 0)  -->
<svg version="1.1" id="Layer_1" xmlns="http://www.w3.org/2000/svg" xmlns:xlink="http://www.w3.org/1999/xlink" x="0px" y="0px"
	 viewBox="0 0 26 26" style="enable-background:new 0 0 26 26;" xml:space="preserve">
<g id="Analysis-report-document-develop-infromation_15_">
	<path d="M22.9,6.8l-3.7-3.7C19.2,3,19.1,3,19,3h-8.3c-0.6,0-1,0.4-1,1v2C5.8,6.2,2.8,9.5,3,13.3c0.2,3.6,3.1,6.5,6.7,6.7v2
		c0,0.6,0.4,1,1,1H22c0.6,0,1-0.4,1-1V7C23,6.9,23,6.8,22.9,6.8z M19.3,4.1l2.5,2.5h-2.2c-0.2,0-0.3-0.1-0.3-0.3V4.1z M3.7,13
		c0-3.4,2.6-6.1,6-6.3v6.2l-4.4,4.4C4.2,16.1,3.7,14.6,3.7,13L3.7,13z M5.8,17.7l4.4-4.4h6.2c-0.2,3.5-3.1,6.2-6.6,6
		C8.2,19.3,6.8,18.7,5.8,17.7L5.8,17.7z M22.3,22c0,0.2-0.1,0.3-0.3,0.3H10.7c-0.2,0-0.3-0.1-0.3-0.3v-2c3.7-0.2,6.7-3.3,6.7-7
		c0-0.2-0.1-0.3-0.3-0.3h-6.3V4c0-0.2,0.1-0.3,0.3-0.3h8v2.7c0,0.6,0.4,1,1,1h2.7V22z"/>
	<path d="M11.3,4.7C11.1,4.7,11,4.8,11,5v6.7c0,0.2,0.1,0.3,0.3,0.3H18c0.2,0,0.3-0.1,0.3-0.3C18.3,7.8,15.2,4.7,11.3,4.7z
		 M11.7,11.3v-6c3.2,0.2,5.8,2.8,6,6H11.7z"/>
	<path d="M18.7,15.7c-1.7,0-3,1.3-3,3c0,1.7,1.3,3,3,3s3-1.3,3-3C21.7,17,20.3,15.7,18.7,15.7z M18.7,21c-1.3,0-2.3-1-2.3-2.3
		c0-1.3,1-2.3,2.3-2.3s2.3,1,2.3,2.3C21,20,20,21,18.7,21z"/>
	<path d="M18,19.2l-0.8-0.8l-0.5,0.5l1,1c0.1,0.1,0.3,0.1,0.5,0l2-2l-0.5-0.5L18,19.2z"/>
	<path d="M19,8.7h2.7v0.7H19V8.7z"/>
	<path d="M19,10.7h2.7v0.7H19V10.7z"/>
	<path d="M19,12.7h2.7v0.7H19V12.7z"/>
</g>
</svg>
