<?xml version="1.0" encoding="utf-8"?>
<!-- Generator: Adobe Illustrator 24.0.0, SVG Export Plug-In . SVG Version: 6.00 Build 0)  -->
<svg version="1.1" id="Layer_1" xmlns="http://www.w3.org/2000/svg" xmlns:xlink="http://www.w3.org/1999/xlink" x="0px" y="0px"
	 viewBox="0 0 26 26" style="enable-background:new 0 0 26 26;" xml:space="preserve">
<path d="M22.9,12.1h-18l6.9-6.5c0.4-0.3,0.4-0.9,0-1.3c-0.3-0.4-0.9-0.4-1.3,0l-7.9,7.5c-0.3,0.3-0.5,0.8-0.5,1.3
	c0,0.5,0.2,0.9,0.5,1.3l7.8,7.5c0.2,0.2,0.4,0.2,0.6,0.2c0.2,0,0.5-0.1,0.7-0.3c0.3-0.4,0.3-0.9,0-1.3l-6.9-6.5h18
	c0.5,0,0.9-0.4,0.9-0.9S23.4,12.1,22.9,12.1L22.9,12.1z"/>
</svg>
