<?xml version="1.0" encoding="utf-8"?>
<!-- Generator: Adobe Illustrator 24.0.0, SVG Export Plug-In . SVG Version: 6.00 Build 0)  -->
<svg version="1.1" id="Layer_1" xmlns="http://www.w3.org/2000/svg" xmlns:xlink="http://www.w3.org/1999/xlink" x="0px" y="0px"
	 viewBox="0 0 58 58" style="enable-background:new 0 0 58 58;" xml:space="preserve">
<style type="text/css">
	.st0{fill:#BBBE70;}
	.st1{fill:#FFFFFF;}
</style>
<circle class="st0" cx="29" cy="29" r="29"/>
<g>
	<g>
		<g>
			<g>
				<path class="st1" d="M43.5,14C43.5,14,43.5,14,43.5,14h-29c-0.3,0-0.5,0.2-0.5,0.5c0,0,0,0,0,0v10h1V15h28v11H25.5v1h18
					c0.3,0,0.5-0.2,0.5-0.5c0,0,0,0,0,0v-12C44,14.2,43.8,14,43.5,14z"/>
			</g>
		</g>
		<g>
			<g>
				<rect x="30.5" y="16.5" class="st1" width="10" height="1"/>
			</g>
		</g>
		<g>
			<g>
				<rect x="32" y="19.5" class="st1" width="10" height="1"/>
			</g>
		</g>
		<g>
			<g>
				<rect x="30" y="22.5" class="st1" width="10" height="1"/>
			</g>
		</g>
		<g>
			<g>
				<path class="st1" d="M30,18.3c-0.3-0.8-1.3-1.2-2.1-0.9c0,0,0,0,0,0l-4.1,2.1c0.2-0.3,0.2-0.7,0.2-1.1c0-1.4-1.1-2.5-2.5-2.5
					S19,17.1,19,18.5c0,0.5,0.2,1.1,0.5,1.5h0c-1.4,0-2.7,0.9-3.2,2.2L15,26.8c-0.3,0.8,0.1,1.8,0.9,2.1c0.4,0.1,0.8,0.1,1.2,0
					c0.4-0.2,0.8-0.5,0.9-1l0.5-1.7v7.2c-0.4-0.3-1-0.5-1.5-0.5c-1.4,0-2.5,1.1-2.5,2.5c0,0.7,0.3,1.3,0.8,1.8
					c-0.8,0.4-1.3,1.2-1.3,2v4.2c0,0.3,0.2,0.5,0.5,0.5c0,0,0,0,0,0h5c0.3,0,0.5-0.2,0.5-0.5c0,0,0,0,0,0v-4.2
					c0-0.7-0.3-1.4-0.9-1.8h3.8c-0.6,0.4-0.9,1.1-0.9,1.8v4.2c0,0.3,0.2,0.5,0.5,0.5c0,0,0,0,0,0h5c0.3,0,0.5-0.2,0.5-0.5
					c0,0,0,0,0,0v-4.2c0-0.9-0.5-1.7-1.3-2c1-1,1-2.5,0-3.5c-0.6-0.6-1.5-0.9-2.3-0.7V22.8l4.6-2.4C29.9,20.1,30.3,19.1,30,18.3z
					 M21.5,17c0.8,0,1.5,0.7,1.5,1.5S22.3,20,21.5,20c-0.8,0-1.5-0.7-1.5-1.5C20,17.7,20.7,17,21.5,17z M17,34
					c0.8,0,1.5,0.7,1.5,1.5S17.8,37,17,37s-1.5-0.7-1.5-1.5C15.5,34.7,16.2,34,17,34z M19,43h-4v-3.7c0-0.7,0.6-1.3,1.3-1.3h1.4
					c0.7,0,1.3,0.6,1.3,1.3V43z M27,39.3V43h-4v-3.7c0-0.7,0.6-1.3,1.3-1.3h1.4C26.4,38,27,38.6,27,39.3z M25,34
					c0.8,0,1.5,0.7,1.5,1.5c0,0.8-0.7,1.5-1.5,1.5s-1.5-0.7-1.5-1.5S24.2,34,25,34z M29,19.1c-0.1,0.2-0.2,0.3-0.4,0.4l-4.9,2.5
					c-0.2,0.1-0.3,0.3-0.3,0.4v11c-0.9,0.7-1.3,1.9-0.8,3H22V28h-1v8.5h-1.7c0.1-0.3,0.2-0.7,0.2-1h0V23c0-0.3-0.2-0.5-0.5-0.5
					c-0.2,0-0.4,0.1-0.5,0.4L17,27.6c-0.1,0.3-0.5,0.5-0.8,0.4c0,0,0,0-0.1,0c-0.3-0.1-0.4-0.5-0.3-0.8l1.3-4.6
					c0.4-0.9,1.2-1.5,2.2-1.5H23c0.1,0,0.2,0,0.2-0.1l5-2.6c0.3-0.1,0.6,0,0.8,0.3C29.1,18.8,29.1,19,29,19.1z"/>
			</g>
		</g>
		<g>
			<g>
				<path class="st1" d="M34.7,37.3c1-1,1-2.5,0-3.5c-1-1-2.5-1-3.5,0s-1,2.5,0,3.5c0,0,0,0,0,0c-0.8,0.4-1.3,1.2-1.3,2v4.2
					c0,0.3,0.2,0.5,0.5,0.5c0,0,0,0,0,0h5c0.3,0,0.5-0.2,0.5-0.5c0,0,0,0,0,0v-4.2C36,38.4,35.5,37.7,34.7,37.3z M33,34
					c0.8,0,1.5,0.7,1.5,1.5S33.8,37,33,37s-1.5-0.7-1.5-1.5C31.5,34.7,32.2,34,33,34z M35,43h-4v-3.7c0-0.7,0.6-1.3,1.3-1.3h1.4
					c0.7,0,1.3,0.6,1.3,1.3V43z"/>
			</g>
		</g>
		<g>
			<g>
				<path class="st1" d="M42.7,37.3c1-1,1-2.5,0-3.5c-1-1-2.5-1-3.5,0s-1,2.5,0,3.5c0,0,0,0,0,0c-0.8,0.4-1.3,1.2-1.3,2v4.2
					c0,0.3,0.2,0.5,0.5,0.5c0,0,0,0,0,0h5c0.3,0,0.5-0.2,0.5-0.5c0,0,0,0,0,0v-4.2C44,38.4,43.5,37.7,42.7,37.3z M41,34
					c0.8,0,1.5,0.7,1.5,1.5S41.8,37,41,37s-1.5-0.7-1.5-1.5C39.5,34.7,40.2,34,41,34z M43,43h-4v-3.7c0-0.7,0.6-1.3,1.3-1.3h1.4
					c0.7,0,1.3,0.6,1.3,1.3V43z"/>
			</g>
		</g>
	</g>
</g>
</svg>
