<?xml version="1.0" encoding="utf-8"?>
<!-- Generator: Adobe Illustrator 24.0.0, SVG Export Plug-In . SVG Version: 6.00 Build 0)  -->
<svg version="1.1" id="Layer_1" xmlns="http://www.w3.org/2000/svg" xmlns:xlink="http://www.w3.org/1999/xlink" x="0px" y="0px"
	 viewBox="0 0 26 26" style="enable-background:new 0 0 26 26;" xml:space="preserve">
<g>
	<path d="M17.6,7.8h-2.4V7.3c0-0.7-0.6-1.3-1.3-1.3h-1.8c-0.7,0-1.3,0.6-1.3,1.3v0.4H8.4c-0.6,0-1.1,0.5-1.1,1.1v1.5
		c0,0.2,0.2,0.4,0.4,0.4H8l0.4,7.9C8.4,19.5,9,20,9.7,20h6.6c0.7,0,1.3-0.5,1.3-1.3l0.4-7.9h0.2c0.2,0,0.4-0.2,0.4-0.4V8.8
		C18.7,8.2,18.2,7.8,17.6,7.8L17.6,7.8z M11.7,7.3c0-0.2,0.2-0.4,0.4-0.4h1.8c0.2,0,0.4,0.2,0.4,0.4v0.4h-2.6V7.3z M8.2,8.8
		c0-0.1,0.1-0.2,0.2-0.2h9.2c0.1,0,0.2,0.1,0.2,0.2v1.1c-0.1,0-9.1,0-9.6,0V8.8z M16.8,18.7c0,0.2-0.2,0.4-0.4,0.4H9.7
		c-0.2,0-0.4-0.2-0.4-0.4l-0.4-7.9h8.3L16.8,18.7z"/>
	<path d="M13,18.3c0.2,0,0.4-0.2,0.4-0.4v-5.7c0-0.2-0.2-0.4-0.4-0.4c-0.2,0-0.4,0.2-0.4,0.4v5.7C12.6,18.1,12.8,18.3,13,18.3z"/>
	<path d="M15.2,18.3c0.2,0,0.4-0.2,0.4-0.4v-5.7c0-0.2-0.2-0.4-0.4-0.4c-0.2,0-0.4,0.2-0.4,0.4v5.7C14.8,18.1,14.9,18.3,15.2,18.3z"
		/>
	<path d="M10.8,18.3c0.2,0,0.4-0.2,0.4-0.4v-5.7c0-0.2-0.2-0.4-0.4-0.4c-0.2,0-0.4,0.2-0.4,0.4v5.7C10.4,18.1,10.6,18.3,10.8,18.3z"
		/>
</g>
</svg>
