<?xml version="1.0" encoding="utf-8"?>
<!-- Generator: Adobe Illustrator 16.0.0, SVG Export Plug-In . SVG Version: 6.00 Build 0)  -->
<!DOCTYPE svg PUBLIC "-//W3C//DTD SVG 1.1//EN" "http://www.w3.org/Graphics/SVG/1.1/DTD/svg11.dtd">
<svg version="1.1" id="Layer_1" xmlns="http://www.w3.org/2000/svg" xmlns:xlink="http://www.w3.org/1999/xlink" x="0px" y="0px"
	 viewBox="0 0 92 18" enable-background="new 0 0 92 18" xml:space="preserve">
<g>
	<g>
		<path fill="#FFFFFF" d="M1.944,9.571v1.752h1.978v0.708H1.944v1.758h2.241v0.793H1V8.844h3.186v0.728H1.944z"/>
		<path fill="#FFFFFF" d="M5.328,11.066c0.176-0.352,0.439-0.617,0.747-0.793c0.352-0.248,0.703-0.351,1.099-0.351
			c0.308,0,0.615,0.088,0.917,0.265c0.269,0.086,0.489,0.262,0.665,0.45V8.429h0.967v6.153H8.756v-0.703
			c-0.131,0.262-0.352,0.438-0.615,0.613c-0.308,0.09-0.615,0.176-0.967,0.176c-0.396,0-0.747-0.086-1.099-0.262
			c-0.308-0.266-0.571-0.527-0.747-0.879c-0.22-0.352-0.308-0.793-0.308-1.23C5.021,11.855,5.108,11.418,5.328,11.066z M8.58,11.504
			c-0.132-0.262-0.308-0.438-0.527-0.527c-0.211-0.176-0.439-0.176-0.659-0.176c-0.264,0-0.483,0-0.703,0.176
			c-0.185,0.09-0.352,0.266-0.483,0.527c-0.132,0.176-0.22,0.441-0.22,0.793c0,0.345,0.088,0.613,0.22,0.789
			c0.132,0.266,0.308,0.441,0.483,0.617c0.22,0.086,0.439,0.176,0.703,0.176c0.22,0,0.448-0.09,0.659-0.176
			c0.22-0.176,0.396-0.352,0.527-0.543c0.133-0.25,0.176-0.512,0.176-0.863C8.756,12.031,8.713,11.68,8.58,11.504z"/>
		<path fill="#FFFFFF" d="M15.084,10.011v4.571h-0.923v-0.527c-0.137,0.176-0.352,0.352-0.571,0.438
			c-0.264,0.09-0.527,0.176-0.791,0.176c-0.352,0-0.658-0.086-0.967-0.262c-0.264-0.09-0.482-0.352-0.658-0.617
			c-0.176-0.298-0.264-0.673-0.264-1.055v-2.724h0.967v2.548c0,0.441,0.088,0.703,0.307,0.969c0.176,0.176,0.483,0.352,0.835,0.352
			s0.615-0.176,0.835-0.352c0.22-0.266,0.308-0.527,0.308-0.969v-2.548H15.084z"/>
		<path fill="#FFFFFF" d="M16.314,11.066c0.176-0.352,0.439-0.617,0.791-0.793c0.352-0.263,0.748-0.351,1.172-0.351
			c0.543,0,1.004,0.175,1.377,0.44c0.352,0.262,0.614,0.613,0.703,1.141h-1.01c-0.088-0.262-0.221-0.438-0.396-0.527
			c-0.176-0.176-0.395-0.262-0.674-0.262c-0.381,0-0.688,0.176-0.941,0.438c-0.23,0.266-0.318,0.703-0.318,1.145
			c0,0.527,0.088,0.879,0.318,1.141c0.254,0.266,0.561,0.441,0.941,0.441c0.543,0,0.895-0.266,1.07-0.703h1.01
			c-0.131,0.438-0.352,0.789-0.745,1.055c-0.353,0.282-0.792,0.438-1.335,0.438c-0.424,0-0.82-0.086-1.172-0.262
			c-0.352-0.266-0.615-0.527-0.791-0.879s-0.264-0.757-0.264-1.23C16.051,11.855,16.139,11.418,16.314,11.066z"/>
		<path fill="#FFFFFF" d="M21.281,11.066c0.219-0.352,0.479-0.617,0.791-0.793c0.332-0.248,0.703-0.351,1.098-0.351
			c0.352,0,0.66,0.088,0.924,0.265c0.264,0.086,0.482,0.262,0.658,0.527v-0.704h0.967v4.571h-0.967v-0.703
			c-0.176,0.262-0.395,0.438-0.658,0.613c-0.264,0.09-0.592,0.176-0.965,0.176c-0.365,0-0.75-0.086-1.056-0.262
			c-0.328-0.266-0.572-0.527-0.791-0.879c-0.176-0.352-0.264-0.793-0.264-1.23C21.018,11.855,21.105,11.418,21.281,11.066z
			 M24.533,11.504c-0.12-0.262-0.264-0.438-0.484-0.527c-0.219-0.176-0.439-0.176-0.703-0.176c-0.219,0-0.439,0-0.658,0.176
			c-0.221,0.09-0.396,0.266-0.527,0.527c-0.133,0.176-0.176,0.441-0.176,0.793c0,0.345,0.043,0.613,0.176,0.789
			c0.131,0.266,0.307,0.441,0.527,0.617c0.219,0.086,0.439,0.176,0.658,0.176c0.264,0,0.484-0.09,0.703-0.176
			c0.221-0.176,0.365-0.352,0.484-0.543c0.131-0.25,0.219-0.512,0.219-0.863C24.752,12.031,24.664,11.68,24.533,11.504z"/>
		<path fill="#FFFFFF" d="M28.049,10.801v2.551c0,0.176,0.043,0.262,0.131,0.352c0.077,0.086,0.221,0.086,0.396,0.086h0.57v0.793
			H28.4c-0.396,0-0.748-0.09-0.967-0.266c-0.221-0.198-0.352-0.527-0.352-0.965v-2.551h-0.527v-0.79h0.527V8.868h0.967v1.143h1.098
			v0.79H28.049z"/>
		<path fill="#FFFFFF" d="M30.07,9.22c-0.088-0.088-0.176-0.264-0.176-0.439c0-0.151,0.088-0.264,0.176-0.375
			c0.131-0.152,0.264-0.157,0.439-0.157s0.307,0.005,0.439,0.157c0.088,0.111,0.176,0.224,0.176,0.375
			c0,0.176-0.088,0.352-0.176,0.439c-0.133,0.176-0.264,0.176-0.439,0.176S30.201,9.396,30.07,9.22z M30.992,10.011v4.571h-0.967
			v-4.571H30.992z"/>
		<path fill="#FFFFFF" d="M33.014,14.406c-0.352-0.266-0.615-0.527-0.791-0.879c-0.219-0.352-0.307-0.757-0.307-1.23
			c0-0.441,0.088-0.879,0.307-1.23c0.208-0.352,0.484-0.617,0.836-0.793c0.352-0.263,0.746-0.351,1.186-0.351
			s0.836,0.088,1.188,0.351c0.352,0.176,0.615,0.441,0.834,0.793c0.221,0.352,0.309,0.789,0.309,1.23
			c0,0.438-0.093,0.879-0.309,1.23c-0.219,0.352-0.521,0.613-0.879,0.879c-0.352,0.176-0.746,0.262-1.186,0.262
			S33.365,14.582,33.014,14.406z M34.896,13.703c0.184-0.176,0.359-0.352,0.49-0.527c0.133-0.266,0.221-0.527,0.221-0.879
			s-0.088-0.617-0.193-0.793c-0.115-0.262-0.291-0.438-0.51-0.527c-0.221-0.176-0.439-0.176-0.667-0.176
			c-0.256,0-0.475,0-0.696,0.176c-0.219,0.09-0.352,0.266-0.482,0.527c-0.133,0.176-0.176,0.441-0.176,0.793
			c0,0.527,0.131,0.879,0.352,1.141c0.264,0.266,0.57,0.441,0.967,0.441C34.442,13.879,34.684,13.789,34.896,13.703z"/>
		<path fill="#FFFFFF" d="M40.793,10.188c0.264,0.176,0.482,0.352,0.658,0.613c0.161,0.352,0.221,0.703,0.221,1.12v2.661h-0.924
			v-2.551c0-0.421-0.088-0.703-0.307-0.965c-0.221-0.176-0.484-0.266-0.836-0.266s-0.615,0.09-0.834,0.266
			c-0.221,0.262-0.309,0.544-0.309,0.965v2.551h-0.967v-4.571h0.967v0.528c0.133-0.176,0.352-0.352,0.572-0.441
			c0.264-0.087,0.521-0.175,0.791-0.175C40.178,9.923,40.484,10.011,40.793,10.188z"/>
		<path fill="#FFFFFF" d="M45.891,14.479c-0.309-0.162-0.527-0.338-0.703-0.6c-0.176-0.266-0.266-0.527-0.266-0.879h1.012
			c0,0.262,0.088,0.438,0.264,0.613s0.439,0.266,0.726,0.266c0.35,0,0.616-0.09,0.792-0.266s0.262-0.352,0.262-0.613
			c0-0.176-0.086-0.352-0.176-0.441c-0.086-0.176-0.262-0.262-0.438-0.262c-0.154-0.09-0.374-0.176-0.682-0.266
			c-0.352-0.086-0.66-0.176-0.924-0.262c-0.219-0.114-0.439-0.266-0.57-0.527c-0.176-0.176-0.264-0.451-0.264-0.879
			c0-0.266,0.088-0.616,0.264-0.797c0.131-0.259,0.395-0.44,0.658-0.61c0.309-0.112,0.66-0.176,1.078-0.176
			c0.529,0,0.967,0.088,1.319,0.426c0.365,0.277,0.613,0.629,0.613,1.157h-1.055c0-0.266-0.086-0.44-0.262-0.606
			c-0.176-0.098-0.441-0.186-0.727-0.186c-0.264,0-0.482,0.088-0.658,0.176c-0.176,0.176-0.264,0.351-0.264,0.616
			c0,0.176,0.043,0.352,0.146,0.438c0.117,0.09,0.248,0.176,0.424,0.266c0.176,0.086,0.374,0.176,0.66,0.257
			c0.418,0.095,0.68,0.181,0.945,0.271c0.262,0.086,0.438,0.262,0.613,0.527c0.176,0.176,0.266,0.438,0.266,0.879
			c0,0.262-0.09,0.527-0.266,0.789c-0.176,0.266-0.352,0.441-0.703,0.617c-0.262,0.176-0.613,0.262-1.053,0.262
			C46.549,14.668,46.197,14.582,45.891,14.479z"/>
		<path fill="#FFFFFF" d="M54.219,12.648h-3.516c0.014,0.352,0.176,0.703,0.438,0.879c0.261,0.262,0.527,0.352,0.879,0.352
			c0.527,0,0.879-0.176,1.055-0.617h1.055c-0.176,0.388-0.438,0.703-0.789,0.97c-0.352,0.312-0.793,0.437-1.32,0.437
			c-0.438,0-0.792-0.086-1.141-0.262c-0.352-0.266-0.617-0.527-0.879-0.879c-0.176-0.352-0.266-0.757-0.266-1.23
			c0-0.441,0.09-0.879,0.266-1.23s0.478-0.617,0.789-0.793c0.352-0.263,0.793-0.351,1.23-0.351c0.441,0,0.793,0.088,1.145,0.351
			c0.352,0.176,0.613,0.441,0.789,0.793c0.176,0.262,0.266,0.703,0.266,1.141C54.219,12.383,54.219,12.559,54.219,12.648z
			 M53.25,11.921c0-0.327-0.091-0.679-0.352-0.854c-0.262-0.176-0.527-0.352-0.929-0.352c-0.302,0-0.563,0.176-0.829,0.352
			c-0.262,0.176-0.352,0.479-0.438,0.854H53.25z"/>
		<path fill="#FFFFFF" d="M55.125,11.066c0.234-0.352,0.5-0.617,0.8-0.793c0.313-0.263,0.755-0.351,1.192-0.351
			c0.527,0,0.969,0.175,1.32,0.44c0.352,0.262,0.613,0.613,0.789,1.141h-1.055c-0.086-0.262-0.176-0.438-0.366-0.527
			c-0.246-0.176-0.423-0.262-0.688-0.262c-0.438,0-0.703,0.176-0.965,0.438c-0.176,0.266-0.352,0.703-0.352,1.145
			c0,0.527,0.176,0.879,0.352,1.141c0.262,0.266,0.527,0.441,0.965,0.441c0.527,0,0.879-0.266,1.055-0.703h1.055
			c-0.176,0.438-0.438,0.789-0.789,1.055c-0.352,0.282-0.793,0.438-1.32,0.438c-0.438,0-0.879-0.086-1.192-0.262
			c-0.3-0.266-0.565-0.527-0.8-0.879c-0.203-0.352-0.293-0.757-0.293-1.23C54.832,11.855,54.922,11.418,55.125,11.066z"/>
		<path fill="#FFFFFF" d="M61.25,10.801v2.551c0,0.176,0,0.262,0.086,0.352c0.09,0.086,0.266,0.086,0.441,0.086h0.613v0.793h-0.789
			c-0.441,0-0.703-0.09-0.969-0.266c-0.262-0.198-0.352-0.527-0.352-0.965v-2.551h-0.527v-0.79h0.527V8.868h0.969v1.143h1.141v0.79
			H61.25z"/>
		<path fill="#FFFFFF" d="M64.063,14.406c-0.352-0.266-0.617-0.527-0.879-0.879c-0.176-0.352-0.266-0.757-0.266-1.23
			c0-0.441,0.09-0.879,0.319-1.23c0.208-0.352,0.474-0.617,0.825-0.793c0.352-0.263,0.789-0.351,1.214-0.351
			c0.409,0,0.806,0.088,1.157,0.351c0.352,0.176,0.617,0.441,0.879,0.793c0.176,0.352,0.266,0.789,0.266,1.23
			c0,0.438-0.09,0.879-0.351,1.23c-0.177,0.352-0.442,0.613-0.794,0.879c-0.352,0.176-0.789,0.262-1.23,0.262
			C64.766,14.668,64.414,14.582,64.063,14.406z M65.906,13.703c0.176-0.176,0.352-0.352,0.527-0.527
			c0.09-0.266,0.176-0.527,0.176-0.879s-0.086-0.617-0.176-0.793c-0.176-0.262-0.338-0.438-0.527-0.527
			c-0.176-0.176-0.438-0.176-0.703-0.176c-0.176,0-0.438,0-0.613,0.176c-0.266,0.09-0.441,0.266-0.527,0.527
			c-0.09,0.176-0.176,0.441-0.176,0.793c0,0.527,0.086,0.879,0.352,1.141c0.262,0.266,0.613,0.441,0.965,0.441
			C65.469,13.879,65.645,13.789,65.906,13.703z"/>
		<path fill="#FFFFFF" d="M70.039,10.188c0.176-0.177,0.438-0.265,0.789-0.265v0.996h-0.262c-0.352,0-0.617,0.147-0.793,0.323
			c-0.184,0.176-0.352,0.521-0.352,0.965v2.375h-0.879v-4.571h0.879v0.704C69.598,10.449,69.773,10.273,70.039,10.188z"/>
	</g>
	<g>
		<path fill="#FFFFFF" d="M73.203,11.066v1.316c0,0,5.449,0.176,7.559,4.57C80.762,16.953,79.793,12.473,73.203,11.066z"/>
		<path fill="#FFFFFF" d="M74.082,8.692v1.495c0,0,5.535,0.262,7.559,6.063v-1.844C81.641,14.406,80.496,10.188,74.082,8.692z"/>
		<path fill="#FFFFFF" d="M72.324,13.613c0,0,4.305-0.703,7.293,3.34c0,0-2.02-2.547-7.293-2.195V13.613z"/>
		<path fill="#FFFFFF" d="M90.078,11.066v1.316c0,0-5.449,0.176-7.559,4.57C82.52,16.953,83.484,12.473,90.078,11.066z"/>
		<path fill="#FFFFFF" d="M89.199,8.692v1.495c0,0-5.539,0.262-7.559,6.063v-1.844C81.641,14.406,82.788,10.188,89.199,8.692z"/>
		<path fill="#FFFFFF" d="M91,13.613c0,0-4.352-0.703-7.34,3.34c0,0,2.023-2.547,7.34-2.195V13.613z"/>
		<path fill="#FFFFFF" d="M83.574,8.341c0,1.055-0.879,1.933-1.934,1.933s-1.915-0.878-1.915-1.933s0.86-1.846,1.915-1.846
			S83.574,7.286,83.574,8.341z"/>
	</g>
	<g>
		<path fill="#FFFFFF" d="M75.488,3.243l0.262,0.527l0.969-0.439l0.262,0.527l-0.965,0.439l0.352,0.703l1.055-0.615l0.262,0.615
			L75.926,5.88l-1.406-2.9l1.738-0.879l0.285,0.527L75.488,3.243z"/>
		<path fill="#FFFFFF" d="M82.254,1.046l0.184,3.164l-0.721,0.088l-0.166-1.934l-0.613,2.021H80.32L79.441,2.54l0.176,1.934h-0.789
			L78.579,1.31l0.952-0.088l1.055,2.187l0.716-2.339L82.254,1.046z"/>
		<path fill="#FFFFFF" d="M85.381,1.749l-0.928,3.076L83.75,4.649l0.879-3.076L85.381,1.749z"/>
		<path fill="#FFFFFF" d="M86.211,5.528c-0.09-0.176-0.176-0.352-0.176-0.527s0-0.352,0.118-0.527l0.694,0.439
			c-0.023,0.088-0.023,0.176-0.023,0.264S86.914,5.353,87,5.44c0.09,0.088,0.176,0.088,0.266,0.088c0.086,0,0.176-0.088,0.218-0.176
			c0.044-0.031,0.044-0.088,0.044-0.176s-0.086-0.176-0.086-0.264c-0.09,0-0.135-0.088-0.266-0.264
			C87.09,4.474,87,4.386,86.914,4.21c-0.09-0.088-0.176-0.264-0.176-0.439c0-0.088,0.086-0.264,0.176-0.439
			c0.176-0.264,0.352-0.439,0.613-0.439c0.323,0,0.617,0.088,0.879,0.264c0.291,0.176,0.527,0.439,0.617,0.703
			c0.086,0.264,0,0.527-0.09,0.791l-0.708-0.527c0.005-0.088,0.005-0.176,0.005-0.264s-0.086-0.13-0.176-0.176
			c-0.086-0.088-0.176-0.088-0.262-0.088c-0.09,0-0.09,0.088-0.176,0.176c-0.09,0.088-0.09,0.176,0,0.264
			c0.086,0.088,0.176,0.264,0.262,0.439c0.176,0.143,0.266,0.264,0.352,0.439c0.09,0.088,0.09,0.264,0.09,0.352
			c0,0.176,0,0.352-0.09,0.527c-0.086,0.176-0.262,0.264-0.438,0.352c-0.163,0.088-0.352,0.088-0.527,0.088
			c-0.176-0.088-0.352-0.136-0.617-0.264C86.473,5.872,86.297,5.704,86.211,5.528z"/>
	</g>
</g>
</svg>
