<?xml version="1.0" encoding="utf-8"?>
<!-- Generator: Adobe Illustrator 16.0.0, SVG Export Plug-In . SVG Version: 6.00 Build 0)  -->
<!DOCTYPE svg PUBLIC "-//W3C//DTD SVG 1.1//EN" "http://www.w3.org/Graphics/SVG/1.1/DTD/svg11.dtd">
<svg version="1.1" id="Layer_1" xmlns="http://www.w3.org/2000/svg" xmlns:xlink="http://www.w3.org/1999/xlink" x="0px" y="0px"
	 viewBox="0 0 200 200" enable-background="new 0 0 200 200" xml:space="preserve">
<g>
	<g>
		<path fill="#004747" d="M9.455,121.79v13.657c0,0,58.884,2.552,81.52,49.053C90.975,184.5,80.659,136.534,9.455,121.79z"/>
		<path fill="#004747" d="M18.91,96.742v15.737c0,0,59.169,2.553,81.09,64.509v-19.566C100,157.422,87.393,112.338,18.91,96.742z"/>
		<path fill="#004747" d="M0,148.443c0,0,46.848-7.042,78.079,36.057c0,0-20.916-27.455-78.079-23.912V148.443z"/>
		<path fill="#004747" d="M190.545,121.79v13.657c0,0-58.884,2.552-81.519,49.053C109.026,184.5,119.341,136.534,190.545,121.79z"/>
		<path fill="#004747" d="M181.088,96.742v15.737c0,0-59.169,2.553-81.088,64.509v-19.566
			C100,157.422,112.607,112.338,181.088,96.742z"/>
		<path fill="#004747" d="M200,148.443c0,0-46.849-7.042-78.081,36.057c0,0,20.918-27.455,78.081-23.912V148.443z"/>
		<ellipse fill="#004747" cx="100" cy="93.181" rx="20.256" ry="20.043"/>
	</g>
	<g>
		<path fill="#004747" d="M32.29,39.712l3.3,6.084l9.914-5.265l3.066,5.656l-9.913,5.264l3.576,6.597l11.213-5.954l3.183,5.869
			l-18.616,9.885L21.706,37.775l18.615-9.885l3.182,5.869L32.29,39.712z"/>
		<path fill="#004747" d="M104.466,15.5l2.848,34.015L98.941,50.2l-1.708-20.398l-5.98,21.029l-6.756,0.554l-9.449-19.814
			l1.713,20.448l-8.373,0.687L65.54,18.691l9.891-0.811l11.617,22.758l7.577-24.332L104.466,15.5z"/>
		<path fill="#004747" d="M137.987,22.741l-9.195,32.896l-8.097-2.216l9.193-32.896L137.987,22.741z"/>
		<path fill="#004747" d="M147.492,62.511c-1.258-1.737-1.967-3.593-2.126-5.567c-0.158-1.975,0.334-3.926,1.48-5.855l7.575,4.704
			c-0.569,1.139-0.714,2.189-0.431,3.148c0.279,0.959,0.934,1.757,1.962,2.395c1.053,0.655,2.037,0.932,2.952,0.83
			c0.914-0.101,1.643-0.577,2.183-1.428c0.453-0.715,0.585-1.456,0.396-2.223s-0.544-1.522-1.059-2.265
			c-0.517-0.741-1.304-1.708-2.365-2.903c-1.521-1.749-2.694-3.281-3.521-4.598c-0.828-1.318-1.314-2.806-1.461-4.467
			c-0.146-1.66,0.356-3.396,1.506-5.208c1.704-2.69,4.025-4.186,6.962-4.486c2.937-0.3,5.986,0.532,9.149,2.495
			c3.219,1.999,5.328,4.372,6.333,7.119c1.003,2.748,0.712,5.523-0.873,8.327l-7.698-4.781c0.535-0.968,0.654-1.918,0.355-2.849
			c-0.298-0.932-0.945-1.708-1.944-2.328c-0.861-0.535-1.699-0.738-2.512-0.613c-0.816,0.126-1.493,0.615-2.032,1.465
			c-0.593,0.934-0.61,1.937-0.053,3.01c0.557,1.073,1.587,2.497,3.091,4.272c1.485,1.804,2.635,3.359,3.448,4.668
			c0.815,1.309,1.303,2.779,1.467,4.411c0.163,1.632-0.304,3.314-1.399,5.043c-1.046,1.647-2.418,2.881-4.116,3.7
			c-1.7,0.819-3.607,1.128-5.721,0.926c-2.113-0.204-4.266-0.986-6.458-2.347C150.444,65.78,148.749,64.248,147.492,62.511z"/>
	</g>
</g>
</svg>
